<?xml version="1.0" standalone="no"?>
<!DOCTYPE svg PUBLIC "-//W3C//DTD SVG 20010904//EN"
 "http://www.w3.org/TR/2001/REC-SVG-20010904/DTD/svg10.dtd">
<svg version="1.0" xmlns="http://www.w3.org/2000/svg"
 width="40.000000pt" height="40.000000pt" viewBox="0 0 40.000000 40.000000"
 preserveAspectRatio="xMidYMid meet">

<g transform="translate(0.000000,40.000000) scale(0.100000,-0.100000)"
fill="#000000" stroke="none">
<path d="M10 200 l0 -150 190 0 190 0 0 150 0 150 -190 0 -190 0 0 -150z m346
118 c22 -21 24 -31 24 -117 0 -83 -2 -96 -22 -117 -22 -23 -29 -24 -158 -24
-129 0 -136 1 -157 24 -20 21 -23 34 -23 116 0 82 3 95 23 116 21 23 28 24
156 24 125 0 135 -1 157 -22z"/>
<path d="M90 290 c0 -6 43 -10 110 -10 67 0 110 4 110 10 0 6 -43 10 -110 10
-67 0 -110 -4 -110 -10z"/>
<path d="M142 253 c32 -2 84 -2 115 0 32 2 6 3 -57 3 -63 0 -89 -1 -58 -3z"/>
<path d="M147 165 c-34 -40 -36 -45 -17 -45 14 0 20 -6 20 -22 0 -20 2 -19 25
8 l25 29 25 -29 c23 -27 25 -28 25 -8 0 16 6 22 20 22 19 0 17 5 -17 45 -20
25 -44 45 -53 45 -9 0 -33 -20 -53 -45z m78 5 c0 -18 -6 -26 -23 -28 -24 -4
-38 18 -28 44 3 9 15 14 28 12 17 -2 23 -10 23 -28z m-50 -30 c11 -17 -5 -31
-19 -17 -14 12 -12 27 4 27 5 0 12 -4 15 -10z m78 3 c3 -5 -1 -14 -9 -20 -14
-14 -30 0 -19 17 7 12 22 13 28 3z"/>
</g>
</svg>
