<?xml version="1.0" standalone="no"?>
<!DOCTYPE svg PUBLIC "-//W3C//DTD SVG 20010904//EN"
 "http://www.w3.org/TR/2001/REC-SVG-20010904/DTD/svg10.dtd">
<svg version="1.0" xmlns="http://www.w3.org/2000/svg"
 width="40.000000pt" height="40.000000pt" viewBox="0 0 40.000000 40.000000"
 preserveAspectRatio="xMidYMid meet">

<g transform="translate(0.000000,40.000000) scale(0.100000,-0.100000)"
fill="#000000" stroke="none">
<path d="M125 371 c-98 -45 -140 -152 -96 -246 70 -151 272 -151 342 0 45 96
-1 207 -103 250 -49 20 -94 19 -143 -4z m155 -13 c132 -67 132 -249 0 -316
-56 -28 -104 -28 -160 0 -132 67 -132 249 0 316 24 12 60 22 80 22 20 0 56
-10 80 -22z"/>
<path d="M147 279 c-20 -38 -27 -66 -27 -109 0 -73 10 -82 92 -78 l63 3 17 65
c10 36 16 71 13 78 -3 7 -23 12 -53 12 l-49 0 1 37 c2 58 -25 55 -57 -8z m49
1 l-6 -40 55 0 c51 0 69 -10 45 -25 -5 -3 -7 -12 -4 -19 3 -8 1 -17 -5 -20 -6
-4 -8 -13 -5 -20 3 -8 1 -17 -5 -20 -6 -4 -8 -13 -4 -22 5 -13 -5 -15 -63 -12
l-69 3 -3 63 c-2 50 1 68 18 91 11 16 20 36 20 45 0 9 7 16 16 16 14 0 15 -7
10 -40z"/>
</g>
</svg>
