<?xml version="1.0" standalone="no"?>
<!DOCTYPE svg PUBLIC "-//W3C//DTD SVG 20010904//EN"
 "http://www.w3.org/TR/2001/REC-SVG-20010904/DTD/svg10.dtd">
<svg version="1.0" xmlns="http://www.w3.org/2000/svg"
 width="40.000000pt" height="40.000000pt" viewBox="0 0 40.000000 40.000000"
 preserveAspectRatio="xMidYMid meet">

<g transform="translate(0.000000,40.000000) scale(0.100000,-0.100000)"
fill="#000000" stroke="none">
<path d="M129 361 c-39 -40 -41 -112 -4 -171 31 -49 31 -58 1 -66 -31 -7 -73
-52 -81 -86 l-7 -28 162 0 162 0 -7 27 c-8 35 -50 80 -81 87 -30 8 -30 17 -1
64 15 24 24 55 25 89 2 51 1 54 -40 83 -53 39 -91 39 -129 1z m98 8 c6 -6 22
-17 35 -23 16 -8 24 -22 26 -45 l3 -34 -24 28 c-23 27 -25 28 -48 12 -13 -9
-34 -17 -48 -17 -13 0 -33 -7 -43 -17 -17 -15 -18 -14 -18 21 0 26 7 44 25 61
26 26 73 33 92 14z m33 -78 c5 -11 10 -37 10 -59 0 -53 -27 -85 -70 -85 -46 0
-72 33 -68 87 3 39 5 41 41 47 21 3 43 11 50 18 16 16 25 14 37 -8z m-20 -162
c0 -4 -7 -12 -15 -19 -12 -10 -21 -10 -40 -2 -36 17 -30 27 15 27 22 0 40 -2
40 -6z m-65 -33 c12 -18 13 -30 6 -50 -10 -24 -15 -26 -71 -26 -33 0 -60 2
-60 5 0 20 35 67 58 79 38 21 49 20 67 -8z m115 9 c25 -13 60 -60 60 -80 0 -3
-27 -5 -60 -5 -56 0 -61 2 -71 26 -7 20 -6 32 6 50 18 28 26 29 65 9z"/>
</g>
</svg>
