<?xml version="1.0" standalone="no"?>
<!DOCTYPE svg PUBLIC "-//W3C//DTD SVG 20010904//EN"
 "http://www.w3.org/TR/2001/REC-SVG-20010904/DTD/svg10.dtd">
<svg version="1.0" xmlns="http://www.w3.org/2000/svg"
 width="40.000000pt" height="40.000000pt" viewBox="0 0 40.000000 40.000000"
 preserveAspectRatio="xMidYMid meet">

<g transform="translate(0.000000,40.000000) scale(0.100000,-0.100000)"
fill="#000000" stroke="none">
<path d="M139 369 c-13 -13 -19 -29 -17 -44 4 -18 -2 -26 -29 -39 -40 -19 -73
-69 -73 -111 0 -16 10 -46 22 -65 11 -19 24 -48 27 -65 6 -25 12 -31 40 -33
26 -3 34 1 38 17 7 29 59 29 66 0 4 -16 12 -20 39 -17 27 2 34 8 36 28 4 29
38 69 70 81 17 7 22 16 22 45 0 30 -7 43 -42 74 -42 37 -42 37 -25 64 20 30 8
34 -37 11 -38 -20 -44 -19 -39 9 6 28 -27 66 -57 66 -11 0 -29 -9 -41 -21z
m75 -5 c34 -34 12 -74 -40 -74 -31 0 -44 13 -44 45 0 20 28 45 50 45 10 0 26
-7 34 -16z m82 -72 c-6 -18 45 -82 65 -82 5 0 9 -16 9 -35 0 -25 -6 -37 -21
-46 -34 -18 -68 -62 -69 -86 0 -19 -6 -23 -30 -23 -23 0 -30 4 -30 20 0 17 -7
20 -40 20 -33 0 -40 -3 -40 -20 0 -16 -7 -20 -30 -20 -24 0 -30 4 -30 23 0 12
-12 40 -25 62 -29 46 -31 84 -10 125 22 42 50 53 125 51 45 -1 71 3 85 13 28
21 48 20 41 -2z"/>
<path d="M177 353 c-2 -5 -1 -19 4 -33 7 -23 7 -23 8 8 1 31 -3 40 -12 25z"/>
<path d="M290 220 c0 -5 5 -10 10 -10 6 0 10 5 10 10 0 6 -4 10 -10 10 -5 0
-10 -4 -10 -10z"/>
</g>
</svg>
