<?xml version="1.0" standalone="no"?>
<!DOCTYPE svg PUBLIC "-//W3C//DTD SVG 20010904//EN"
 "http://www.w3.org/TR/2001/REC-SVG-20010904/DTD/svg10.dtd">
<svg version="1.0" xmlns="http://www.w3.org/2000/svg"
 width="64.000000pt" height="64.000000pt" viewBox="0 0 64.000000 64.000000"
 preserveAspectRatio="xMidYMid meet">

<g transform="translate(0.000000,64.000000) scale(0.100000,-0.100000)"
fill="#000000" stroke="none">
<path d="M276 534 c-3 -9 -6 -27 -6 -40 0 -24 -2 -24 -88 -24 -124 0 -122 3
-122 -192 0 -137 2 -157 18 -171 16 -15 48 -17 244 -17 205 0 226 2 241 18 14
16 17 43 17 174 0 192 2 188 -123 188 l-87 0 0 28 c0 15 -5 33 -12 40 -18 18
-75 15 -82 -4z m74 -99 c0 -25 -4 -45 -10 -45 -5 0 -10 9 -10 20 0 11 -4 20
-10 20 -5 0 -10 -9 -10 -20 0 -11 -4 -20 -10 -20 -5 0 -10 20 -10 45 0 43 1
45 30 45 29 0 30 -2 30 -45z m-80 5 c0 -5 -6 -10 -14 -10 -19 0 -29 -30 -15
-46 17 -21 142 -19 160 2 11 14 10 19 -9 34 -12 10 -22 21 -22 24 0 4 42 5 93
4 l92 -3 0 -165 0 -165 -235 0 -235 0 -3 155 c-1 85 0 160 2 167 7 16 186 19
186 3z m0 -40 c0 -5 -4 -10 -10 -10 -5 0 -10 5 -10 10 0 6 5 10 10 10 6 0 10
-4 10 -10z m120 0 c0 -5 -4 -10 -10 -10 -5 0 -10 5 -10 10 0 6 5 10 10 10 6 0
10 -4 10 -10z"/>
<path d="M104 337 c-3 -8 -3 -56 -2 -108 l3 -94 204 -3 c142 -2 208 1 217 9
14 12 20 161 8 193 -5 14 -34 16 -215 16 -165 0 -211 -3 -215 -13z m416 -97
l0 -90 -108 0 c-107 0 -109 0 -120 25 -7 14 -12 38 -12 52 0 30 -25 63 -48 63
-25 0 -52 -31 -52 -61 0 -40 -20 -79 -42 -79 -16 0 -18 9 -18 90 l0 90 200 0
200 0 0 -90z m-265 -10 c0 -31 -3 -35 -25 -35 -19 0 -26 6 -28 23 -5 36 5 54
30 50 19 -2 23 -9 23 -38z m23 -68 c2 -8 -12 -12 -47 -12 -45 0 -61 7 -46 21
10 10 89 2 93 -9z"/>
<path d="M360 280 c0 -6 27 -10 60 -10 33 0 60 4 60 10 0 6 -27 10 -60 10 -33
0 -60 -4 -60 -10z"/>
<path d="M360 240 c0 -5 23 -10 50 -10 28 0 50 5 50 10 0 6 -22 10 -50 10 -27
0 -50 -4 -50 -10z"/>
<path d="M360 200 c0 -5 9 -10 20 -10 11 0 20 5 20 10 0 6 -9 10 -20 10 -11 0
-20 -4 -20 -10z"/>
<path d="M420 200 c0 -5 9 -10 20 -10 11 0 20 5 20 10 0 6 -9 10 -20 10 -11 0
-20 -4 -20 -10z"/>
</g>
</svg>
