<?xml version="1.0" standalone="no"?>
<!DOCTYPE svg PUBLIC "-//W3C//DTD SVG 20010904//EN"
 "http://www.w3.org/TR/2001/REC-SVG-20010904/DTD/svg10.dtd">
<svg version="1.0" xmlns="http://www.w3.org/2000/svg"
 width="40.000000pt" height="40.000000pt" viewBox="0 0 40.000000 40.000000"
 preserveAspectRatio="xMidYMid meet">

<g transform="translate(0.000000,40.000000) scale(0.100000,-0.100000)"
fill="#000000" stroke="none">
<path d="M191 361 c-6 -11 -11 -26 -11 -34 0 -16 -26 -28 -85 -36 -34 -5 -41
-10 -50 -38 -5 -18 -15 -33 -21 -33 -19 0 -28 -20 -15 -33 6 -6 11 -33 11 -59
0 -41 3 -48 20 -48 11 0 20 7 20 15 0 11 12 15 50 15 l50 0 0 -50 c0 -43 3
-50 20 -50 11 0 20 7 20 15 0 12 14 15 70 15 56 0 70 -3 70 -15 0 -8 9 -15 20
-15 17 0 20 7 20 48 0 26 5 53 11 59 13 13 4 33 -17 33 -8 0 -14 5 -14 10 0 6
5 10 10 10 6 0 10 22 10 48 0 26 5 53 11 59 13 13 4 33 -15 33 -6 0 -16 15
-21 33 -10 32 -10 32 -82 35 -63 2 -73 0 -82 -17z m149 -10 c19 -37 12 -41
-70 -41 -82 0 -89 4 -70 41 9 15 22 19 70 19 48 0 61 -4 70 -19z m50 -61 c0
-5 -4 -10 -10 -10 -5 0 -10 -16 -10 -35 0 -24 -5 -35 -14 -35 -16 0 -46 26
-46 41 0 5 -18 9 -40 9 -22 0 -40 -3 -40 -7 0 -5 16 -8 37 -8 20 0 38 -6 40
-12 3 -9 -8 -13 -34 -13 -35 0 -41 4 -56 34 -11 25 -24 36 -44 39 -15 2 27 5
95 6 75 0 122 -3 122 -9z m-190 -29 c19 -37 12 -41 -70 -41 -82 0 -89 4 -70
41 9 15 22 19 70 19 48 0 61 -4 70 -19z m-14 -67 c-3 -9 -6 -19 -6 -22 0 -4
-20 -6 -45 -4 -40 4 -45 2 -51 -22 -4 -19 -13 -26 -30 -26 -21 0 -24 5 -24 35
0 19 -4 35 -10 35 -5 0 -10 5 -10 10 0 6 37 10 91 10 79 0 90 -2 85 -16z m154
-3 c19 -37 12 -41 -70 -41 -82 0 -89 4 -70 41 9 15 22 19 70 19 48 0 61 -4 70
-19z m30 -1 c0 -5 -2 -10 -4 -10 -3 0 -8 5 -11 10 -3 6 -1 10 4 10 6 0 11 -4
11 -10z m-222 -50 c-14 -22 -58 -27 -58 -7 0 20 10 27 42 27 26 0 27 -2 16
-20z m242 -10 c0 -5 -4 -10 -10 -10 -5 0 -10 -16 -10 -35 0 -30 -3 -35 -24
-35 -17 0 -26 7 -30 25 -5 21 -12 25 -46 25 -34 0 -41 -4 -46 -25 -4 -18 -13
-25 -30 -25 -21 0 -24 5 -24 35 0 19 -4 35 -10 35 -5 0 -10 5 -10 10 0 6 47
10 120 10 73 0 120 -4 120 -10z m-340 -30 c0 -5 -4 -10 -10 -10 -5 0 -10 5
-10 10 0 6 5 10 10 10 6 0 10 -4 10 -10z m258 -32 c3 -15 -4 -18 -37 -18 -39
0 -53 14 -34 34 14 14 68 1 71 -16z m-118 -38 c0 -5 -4 -10 -10 -10 -5 0 -10
5 -10 10 0 6 5 10 10 10 6 0 10 -4 10 -10z m180 0 c0 -5 -4 -10 -10 -10 -5 0
-10 5 -10 10 0 6 5 10 10 10 6 0 10 -4 10 -10z"/>
<path d="M330 255 c0 -8 7 -15 15 -15 8 0 15 7 15 15 0 8 -7 15 -15 15 -8 0
-15 -7 -15 -15z"/>
<path d="M40 165 c0 -8 7 -15 15 -15 8 0 15 7 15 15 0 8 -7 15 -15 15 -8 0
-15 -7 -15 -15z"/>
<path d="M180 95 c0 -8 7 -15 15 -15 8 0 15 7 15 15 0 8 -7 15 -15 15 -8 0
-15 -7 -15 -15z"/>
<path d="M330 95 c0 -8 7 -15 15 -15 8 0 15 7 15 15 0 8 -7 15 -15 15 -8 0
-15 -7 -15 -15z"/>
</g>
</svg>
