<?xml version="1.0" standalone="no"?>
<!DOCTYPE svg PUBLIC "-//W3C//DTD SVG 20010904//EN"
 "http://www.w3.org/TR/2001/REC-SVG-20010904/DTD/svg10.dtd">
<svg version="1.0" xmlns="http://www.w3.org/2000/svg"
 width="40.000000pt" height="40.000000pt" viewBox="0 0 40.000000 40.000000"
 preserveAspectRatio="xMidYMid meet">

<g transform="translate(0.000000,40.000000) scale(0.100000,-0.100000)"
fill="#000000" stroke="none">
<path d="M148 363 c-6 -7 -18 -13 -27 -13 -20 -1 -64 -68 -56 -88 3 -8 0 -21
-6 -28 -9 -11 -8 -18 3 -32 22 -24 16 -57 -15 -90 -33 -35 -34 -42 -2 -42 21
0 25 -5 25 -27 0 -27 0 -27 45 17 40 39 48 43 65 32 16 -10 24 -10 40 0 17 11
25 7 65 -32 45 -44 45 -44 45 -17 0 22 4 27 25 27 32 0 31 7 -2 42 -31 33 -37
66 -15 90 11 14 12 21 3 32 -6 7 -9 20 -6 28 8 20 -35 87 -55 88 -9 0 -21 5
-28 12 -16 16 -90 17 -104 1z m100 -11 c2 -7 12 -12 23 -12 12 0 23 -10 29
-25 5 -14 15 -25 21 -25 7 0 9 -9 6 -23 -4 -12 -2 -29 3 -37 6 -10 4 -20 -6
-31 -8 -9 -14 -20 -12 -25 4 -13 -51 -65 -65 -63 -7 1 -20 -1 -30 -5 -9 -5
-25 -5 -35 0 -9 4 -22 6 -29 5 -14 -2 -69 50 -65 63 2 5 -5 17 -14 27 -12 14
-14 22 -6 32 6 7 9 23 5 35 -3 13 -1 22 6 22 6 0 16 11 21 25 6 15 17 25 29
25 10 0 21 6 24 13 6 17 89 16 95 -1z m-125 -236 c15 -22 14 -25 -14 -52 -28
-27 -29 -27 -29 -6 0 16 -6 22 -22 22 -21 0 -21 1 7 30 35 36 38 37 58 6z
m212 -6 c28 -29 28 -30 7 -30 -16 0 -22 -6 -22 -22 0 -21 -1 -21 -29 6 -28 27
-29 30 -14 52 20 31 23 30 58 -6z"/>
<path d="M218 253 c-23 -23 -29 -24 -43 -13 -12 10 -19 10 -27 2 -9 -9 -6 -18
12 -37 l24 -25 42 41 c24 23 41 46 38 51 -8 13 -18 9 -46 -19z"/>
</g>
</svg>
