<?xml version="1.0" standalone="no"?>
<!DOCTYPE svg PUBLIC "-//W3C//DTD SVG 20010904//EN"
 "http://www.w3.org/TR/2001/REC-SVG-20010904/DTD/svg10.dtd">
<svg version="1.0" xmlns="http://www.w3.org/2000/svg"
 width="40.000000pt" height="40.000000pt" viewBox="0 0 40.000000 40.000000"
 preserveAspectRatio="xMidYMid meet">

<g transform="translate(0.000000,40.000000) scale(0.100000,-0.100000)"
fill="#000000" stroke="none">
<path d="M90 370 c-25 -25 -28 -116 -5 -146 21 -28 18 -43 -10 -50 -27 -7 -65
-48 -65 -70 0 -10 15 -14 55 -14 l56 0 -16 -30 c-8 -16 -15 -34 -15 -40 0 -6
52 -10 150 -10 113 0 150 3 150 13 0 25 -39 74 -69 87 -35 14 -37 20 -16 61 9
16 13 35 9 41 -4 7 -3 8 4 4 17 -10 16 75 0 96 -24 29 -63 48 -99 48 -20 0
-42 7 -49 15 -17 21 -56 19 -80 -5z m83 -8 c15 -16 15 -19 -6 -32 -12 -7 -35
-17 -52 -22 -29 -7 -29 -8 5 -4 l35 4 -4 -50 c-2 -40 0 -49 10 -43 8 4 6 0 -3
-10 -15 -17 -19 -17 -41 -2 -33 21 -47 130 -20 159 21 23 55 23 76 0z m113
-38 c27 -21 34 -33 33 -58 -1 -22 -3 -25 -6 -9 -7 36 -28 47 -55 29 -12 -9
-34 -16 -48 -16 -14 0 -31 -5 -38 -12 -9 -9 -12 -6 -12 15 0 33 40 77 70 77
12 0 37 -12 56 -26z m10 -57 c12 -49 0 -99 -28 -120 l-28 -21 -27 21 c-23 17
-28 28 -28 64 0 41 2 44 33 50 19 4 39 12 45 18 17 17 26 13 33 -12z m-117
-104 c15 -34 14 -38 -14 -51 -29 -14 -145 -16 -145 -4 0 14 38 50 61 57 11 4
26 2 32 -4 13 -13 44 -15 51 -3 2 4 -7 8 -21 7 -14 0 -28 5 -30 11 -2 6 9 11
26 11 21 0 32 -7 40 -24z m98 -46 c-7 -21 -36 -32 -54 -21 -31 19 -25 31 17
31 24 0 39 -4 37 -10z m-71 -22 c20 -19 48 -19 68 1 10 9 24 13 36 9 20 -6 70
-60 70 -76 0 -5 -61 -9 -140 -9 -95 0 -140 4 -140 11 0 15 65 79 80 79 6 0 18
-7 26 -15z"/>
</g>
</svg>
