<?xml version="1.0" standalone="no"?>
<!DOCTYPE svg PUBLIC "-//W3C//DTD SVG 20010904//EN"
 "http://www.w3.org/TR/2001/REC-SVG-20010904/DTD/svg10.dtd">
<svg version="1.0" xmlns="http://www.w3.org/2000/svg"
 width="40.000000pt" height="40.000000pt" viewBox="0 0 40.000000 40.000000"
 preserveAspectRatio="xMidYMid meet">

<g transform="translate(0.000000,40.000000) scale(0.100000,-0.100000)"
fill="#000000" stroke="none">
<path d="M0 210 c0 -149 0 -150 23 -150 12 0 28 -9 35 -20 16 -26 47 -26 69 0
14 16 30 20 78 20 49 0 62 -4 73 -20 15 -25 46 -26 69 -2 10 11 26 22 36 25
27 10 24 139 -5 197 l-23 45 -62 3 c-59 3 -63 4 -63 27 l0 25 -115 0 -115 0 0
-150z m220 40 l0 -100 -105 0 -105 0 0 100 0 100 105 0 105 0 0 -100z m135 40
c4 -6 -10 -10 -34 -10 l-41 0 0 -55 0 -55 55 0 c30 0 55 -4 55 -10 0 -5 -7
-10 -15 -10 -8 0 -15 -7 -15 -15 0 -8 7 -15 15 -15 17 0 20 -35 4 -45 -6 -4
-17 2 -25 14 -19 27 -60 27 -76 1 -7 -11 -21 -20 -30 -20 -16 0 -18 12 -18
108 0 60 3 112 7 115 10 11 111 8 118 -3z m-135 -185 c0 -34 -1 -35 -38 -35
-26 0 -41 6 -50 20 -7 11 -23 20 -37 20 -14 0 -30 -9 -37 -20 -13 -21 -48 -28
-48 -10 0 6 7 10 15 10 8 0 15 7 15 15 0 8 -7 15 -15 15 -8 0 -15 5 -15 10 0
6 42 10 105 10 l105 0 0 -35z m-96 -27 c8 -14 7 -21 -6 -34 -30 -30 -75 9 -48
42 16 18 39 15 54 -8z m220 0 c8 -14 7 -21 -6 -34 -30 -30 -75 9 -48 42 16 18
39 15 54 -8z"/>
<path d="M21 243 c1 -21 3 -30 6 -21 2 9 12 19 21 21 15 4 15 5 0 6 -10 0 -18
5 -18 10 0 5 8 12 18 14 13 4 11 5 -5 6 -20 1 -23 -4 -22 -36z"/>
<path d="M71 232 c2 -23 2 -24 6 -4 5 27 20 29 28 2 3 -11 14 -20 23 -20 15 0
15 2 2 10 -13 8 -12 10 3 10 9 0 17 7 17 15 0 8 -5 15 -11 15 -5 0 -7 -4 -4
-10 3 -5 1 -10 -4 -10 -6 0 -11 4 -11 8 0 4 -11 9 -25 10 -21 1 -25 -2 -24
-26z"/>
<path d="M165 248 c-9 -22 1 -38 23 -38 15 0 15 2 2 10 -13 8 -12 10 3 10 9 0
17 7 17 15 0 8 -5 15 -11 15 -5 0 -7 -4 -4 -10 3 -5 2 -10 -4 -10 -5 0 -11 6
-14 13 -3 8 -7 7 -12 -5z"/>
<path d="M80 65 c0 -8 7 -15 15 -15 8 0 15 7 15 15 0 8 -7 15 -15 15 -8 0 -15
-7 -15 -15z"/>
<path d="M300 65 c0 -8 7 -15 15 -15 8 0 15 7 15 15 0 8 -7 15 -15 15 -8 0
-15 -7 -15 -15z"/>
</g>
</svg>
