<svg version="1.2" baseProfile="tiny-ps" xmlns="http://www.w3.org/2000/svg" viewBox="0 0 536 507" width="536" height="507">
	<title>OLVDDC1-ai</title>
	<style>
		tspan { white-space:pre }
		.s0 { fill: #e8770a } 
		.s1 { fill: #fdcc13 } 
		.s2 { fill: #ffffff } 
		.s3 { fill: #1d1d1b } 
		.s4 { fill: #f6a71c } 
		.s5 { fill: #ffdc6f } 
	</style>
	<g id="Layer 1">
		<g id="&lt;Group&gt;">
			<g id="&lt;Group&gt;">
				<path id="&lt;Path&gt;" class="s0" d="m197.04 483.51c-9.55 10.71-28.07 16.6-37.56 5.83c-4.31-4.89-5.37-11.82-5.56-18.34c-0.52-17.62 4.09-35.36 13.11-50.51c-9.52-8.67-19.04-17.33-28.56-26c-15.27 16.87-35.78 28.93-57.95 34.07c-7.97 1.85-16.42 2.8-24.26 0.45c-7.83-2.35-14.91-8.64-16.18-16.72c-2.26-14.32 12.82-24.72 25.77-31.24c12.74-6.42 25.48-12.83 38.22-19.25c-8.16-15.34-15.28-31.23-21.29-47.53c-21.56 12.16-48.12 15.09-71.81 7.93c-3.77-1.14-7.79-2.79-9.65-6.26c-1.57-2.93-1.23-6.52-0.35-9.73c3.97-14.47 17.59-24.68 32.03-28.78c14.44-4.1 29.76-3.16 44.74-2.18c-7.46-1.36-7.82-11.88-6.14-19.26c5.45-23.89 12.5-47.41 21.09-70.36c-2.67 7.14-36.52-15.19-39.16-16.65c-6.26-3.46-12.67-7.05-17.27-12.52c-13.44-15.95 4.33-35.56 20.65-40.24c19.02-5.45 35.64 19.38 54.63 19.44c4.57 0.01 24.94-24.31 30.02-28.17c12.26-9.34 25.4-16.35 39.07-23.31c14.05-7.16 11.98-11.67 10.71-26.34c-1.68-19.41 3.25-57.33 30.51-57.45c7.67-0.04 13.96 6.03 18.35 12.32c10.24 14.68 15.08 33.05 13.41 50.87c29.92 0.67 59.75 5.13 88.55 13.25c9.57-14.67 15.1-32.14 27.29-44.71c12.2-12.57 35.35-17.51 46.2-3.76c8.76 11.1 4.64 27.28-0.6 40.42c-6.27 15.75-13.58 31.09-21.85 45.88c18.96 12.02 34.7 29.09 45.15 48.96c20.24-13.9 44.32-22.17 68.83-23.62c4.98-0.3 10.33-0.22 14.47 2.57c5.97 4.02 7.36 12.66 4.89 19.41c-2.47 6.75-7.94 11.94-13.58 16.4c-14.77 11.68-32.03 20.2-50.29 24.83c7.79 20.8 10.38 43.52 7.49 65.55c28.69-2.37 57.58 18.22 64.72 46.11c0.72 2.82 1.23 5.88 0.14 8.58c-2.03 5.05-8.39 6.5-13.81 6.96c-19.78 1.69-39.89-0.51-58.84-6.45c-14.64 19.16-30.88 37.1-48.5 53.57c18.86 0.24 37.23 11.23 46.35 27.74c4.93 8.93 7.06 20.46 1.66 29.11c-4.41 7.07-12.88 10.64-21.14 11.8c-22.88 3.22-47.07-10.58-55.95-31.91c-14.42 5.25-28.83 10.5-43.25 15.75c-2.71 0.99-5.7 2.23-6.81 4.89c-1.01 2.4-0.12 5.13 0.77 7.58c3.77 10.41 7.54 21.1 7.54 32.17c-0.01 11.07-4.54 22.79-14.03 28.5c-13.61 8.17-32.24 0.74-41.71-12c-9.47-12.74-12.11-29.14-14.46-44.83c0.94 6.3-52.49-2.43-57.92-6.73c-6.41 13.84-7.14 31.87-17.87 43.91z" />
				<path id="&lt;Path&gt;" class="s1" d="m428.22 273.54c-3.56 54.66-40.89 99.31-91.81 121.23c-45.44 19.57-115.48 22.55-157.84-6.85c-29.85-20.72-51.57-49.43-62.58-82.92c-8.18-24.89-8.98-52.03-2.71-77.41c3.97-16.04 10.6-31.34 19.36-45.47c12.57-20.3 29.46-38.21 48.98-52.55c42.21-31.01 101.28-45.33 149.39-23.74c19.46 8.75 36.01 22.73 49.91 38.52c18.54 21.05 32.73 45.99 40.62 72.49c5.48 18.4 7.92 37.56 6.69 56.71z" />
				<g id="&lt;Group&gt;">
					<path id="&lt;Path&gt;" class="s2" d="m385 184.46c17.73 25.15 1.5 64.19-35.23 64.52c-21.15 0.19-40.73-15.25-44.02-33.76c-3.71-21 10.39-38.73 28.61-45.67c17.02-6.49 37.62-3.56 50.64 14.91z" />
					<path id="&lt;Path&gt;" class="s2" d="m228.21 202.44c15.77 22.37 1.33 57.08-31.33 57.38c-18.81 0.17-36.23-13.56-39.15-30.03c-3.3-18.68 9.24-34.44 25.44-40.62c15.13-5.77 33.46-3.17 45.04 13.26z" />
					<path id="&lt;Path&gt;" class="s3" d="m368.67 232.22c-4.07 6.12-11.39 9.94-18.74 9.77c-6.86-0.16-16.85-2.41-21.11-8.13c-3.93-5.28-5.85-13.19-3.3-19.48c3.07-7.55 9.92-13.45 17.84-15.36c11.83-2.85 23.04 2.79 27.47 11.83c2.99 6.1 2.9 13.75-2.17 21.37z" />
					<path id="&lt;Path&gt;" class="s2" d="m347.76 219.94c-1.98-7.64 7.53-21.14 15.56-13.33c6.04 5.87 2.85 20.19-6.43 20.92c-4.29 0.34-8.06-3.43-9.14-7.6z" />
					<path id="&lt;Path&gt;" class="s3" d="m211.72 243.71c-4.07 6.12-11.39 9.94-18.74 9.77c-6.86-0.16-16.85-2.41-21.11-8.13c-3.93-5.28-5.85-13.19-3.3-19.48c3.07-7.55 9.92-13.45 17.84-15.36c11.83-2.85 23.04 2.79 27.47 11.83c2.99 6.1 2.9 13.75-2.17 21.37z" />
					<path id="&lt;Path&gt;" class="s2" d="m190.82 231.43c-1.98-7.64 7.53-21.14 15.56-13.33c6.04 5.87 2.85 20.19-6.43 20.92c-4.29 0.34-8.06-3.43-9.14-7.6z" />
				</g>
				<path id="&lt;Path&gt;" class="s0" d="m311.22 271.77c-1.54 18.31-14.06 36.21-31.91 40.58c-5.6 1.37-11.45 1.42-17.2 1.06c-19.93-1.23-31.25-20.32-37.45-36.85c8.63 1.3 17.13 0.91 25.83 1.34c20.4 1.01 40.95-1.05 60.73-6.14z" />
				<path id="&lt;Path&gt;" class="s4" d="m428.22 273.54c-3.56 54.66-40.89 99.31-91.81 121.23c-45.44 19.57-115.48 22.55-157.84-6.85c-29.85-20.72-51.57-49.43-62.58-82.92c-8.18-24.89-8.98-52.03-2.71-77.41c3.97-16.04 10.6-31.34 19.36-45.47c-13.47 35.5-17.52 74.8-1.5 108.54c14.85 31.26 44.95 53.1 77.2 65.67c32.42 12.63 68.46 17.06 102.42 9.49c33.95-7.56 65.54-27.68 84.23-57.01c10.01-15.72 16.18-33.59 20.66-51.67c3.22-13.01 5.49-26.73 5.88-40.29c5.48 18.4 7.92 37.56 6.69 56.71z" />
				<path id="&lt;Path&gt;" class="s5" d="m209.32 138.1c0.91 0.08 1.37-0.28 1.4-1.08c0.06 0.15 0.12 0.3 0.19 0.44c0.55 0.33 1.15 1.31 1.67 1.72c0.3 0.24 1.24 0.66 1.26 0.83c-0.06-0.39-1.12 0.62-1.22 0.51c0.41 0.43 0.57-2.27 0.62-1.48c-0.01-0.27-0.87-1.49-0.39-1.05c0.57 0.52-1.13-0.9-1.18-0.78c-0.19 0.49 2.6 0.13 2.77 0.11c0.14-0.02 0.7-0.44 0.56-0.58c-0.12-0.12-0.35 1.09-0.43 1.58c0.09-0.78 0.12-0.86 0.1-0.23c0.02 0.63-0.02 0.55-0.12-0.24c-0.44 0.81 0.84 0.79-0.26-0.1c-3.37-2.73-7.57-1.47-8.06 2.94c1.11-9.88 13.64-11.84 17.2-2.33c2.45 6.53-3.25 13.51-9.45 14.95c-6.96 1.61-13.45-2.71-15.59-9.34c-3.1-9.6 3.39-22.41 14.35-22.32c10.23 0.09 16.81 12.07 13.62 21.25c-1.56 4.47-4.88 8.38-9.66 9.4c-5.08 1.08-9.52-1.86-12.49-5.72c-2.76-3.6-4.7-8.46-2.1-12.68c2.16-3.5 6.62-4.8 10.19-2.78c3.86 2.19 1.19 8-2.95 6.99z" />
				<path id="&lt;Path&gt;" class="s5" d="m183.68 153.53c0.74 1.15 0.49 2.94-0.5 3.86c-0.17 0.17-0.15 0.14 0.05-0.11c0.14-0.14 0.23-0.3 0.27-0.48c0.12-0.32 0.14-0.36 0.06-0.13c0.03-0.21 0.05-0.43 0.08-0.64c-0.01 0.09-0.01 0.21 0 0.31c0-0.02-0.18-1.01-0.05-0.53c-0.3-1.07-0.36-0.71-0.17-0.43c0.26 0.36-0.65-0.78-0.35-0.46c0.27 0.29-0.95-0.7-0.42-0.36c0.44 0.29-0.6-0.24-0.6-0.24c-1.12 0.15-2.23 0.29-3.35 0.44c0.35-0.15 0.7-0.32 1.02-0.52c0.16-0.1 0.74-0.53 0.11-0.05c-0.59 0.45-0.14 0.1-0.01-0.02c0.14-0.13 0.28-0.27 0.41-0.41c0.13-0.14 0.59-0.71 0.08-0.07c-0.48 0.61-0.13 0.15-0.04 0c0.1-0.17 0.19-0.33 0.27-0.51c-0.16 0.38-0.32 0.76-0.48 1.14c0.02-0.07 0.05-0.14 0.07-0.21c1.12 1.98 2.25 3.96 3.37 5.94c-0.12-0.04-0.24-0.08-0.37-0.09c0.43 0.06 0.87 0.12 1.3 0.18c-0.12-0.02-0.25-0.02-0.38-0.01c0.44-0.06 0.88-0.12 1.33-0.18c-0.2 0.03-0.36 0.07-0.55 0.13c0.41-0.17 0.81-0.34 1.22-0.51c-0.18 0.08-0.33 0.17-0.5 0.28c0.35-0.27 0.7-0.54 1.06-0.82c-0.15 0.13-0.27 0.25-0.4 0.4c0.28-0.36 0.56-0.72 0.84-1.08c-0.03 0.06-0.06 0.11-0.08 0.17c0.18-0.43 0.36-0.86 0.54-1.29c-0.05 0.11-0.08 0.23-0.1 0.35c0.07-0.49 0.13-0.98 0.2-1.47c-0.01 0.06-0.01 0.12-0.02 0.18c0 1.01-0.26 1.95-0.76 2.82c-0.5 0.84-1.17 1.51-2.01 2.01c-1.55 0.91-3.35 0.97-4.98 0.28c-3.58-1.51-4.6-6.27-1.8-9.06c1.35-1.35 3.24-2.21 5.16-2.26c1.93-0.04 3.56 0.67 5 1.92c2.05 1.77 1.66 5.01 0 6.83c-2.54 2.78-7.39 5.99-10.74 2.48c-1.38-1.45-1.81-3.74-1.17-5.63c0.56-1.66 1.93-3.33 3.77-3.59c1.47-0.21 2.76 0.17 3.6 1.47z" />
				<path id="&lt;Path&gt;" class="s0" d="m158.37 113.01c-11.98 2.04-22.95-11.46-31.01-18.55c-10.43-9.17 5.86-25.59 15.26-15.26c7.26 7.98 20.72 18.59 18.93 30.62c-0.21 1.41-1.8 2.95-3.19 3.19z" />
				<path id="&lt;Path&gt;" class="s0" d="m96.23 231.24c-3.5 2.56-7.98 1.95-12.1 1.8c-4.34-0.15-8.64-0.54-12.97-0.93c-8.96-0.8-18.84-0.56-26.8-5.2c-5.47-3.19-4.73-12.57 1.83-13.98c9.41-2.03 18.95 1.27 28.12 3.38c7.4 1.7 18.73 2.61 23.43 9.16c1.44 2 0.19 4.52-1.51 5.77z" />
				<path id="&lt;Path&gt;" class="s0" d="m287.23 79.76c-3.06-5.75-2.96-12.97-3.43-19.35c-0.52-7.1 0.61-14.93 3.55-21.41c1.93-4.24 7.62-5.34 11.51-3.77c4.46 1.79 6.21 6.38 5.34 10.88c-1.06 5.49-3.45 11.05-5.26 16.35c-1.81 5.28-1.77 11.13-3.82 16.27c-1.27 3.2-5.98 4.63-7.9 1.03z" />
				<path id="&lt;Path&gt;" class="s0" d="m407.53 141.36c-0.14-7.04 4.28-12.14 8.68-17.32c4.32-5.07 9.09-9.69 14.23-13.92c10.69-8.8 22.71 7.55 11.41 14.79c-4.99 3.2-9.66 6.72-14.02 10.76c-4.51 4.18-8.07 8.66-14.1 10.42c-3.12 0.91-6.15-1.6-6.21-4.73z" />
				<path id="&lt;Path&gt;" class="s0" d="m494.93 222.53c11.87-1.09 12.12 19.23 0 18.64c-6.61-0.32-13.17-0.07-19.77 0.49c-4.97 0.42-12.87 3.09-16.61-1.48c-9.7-11.86 30.8-17.13 36.38-17.65z" />
				<path id="&lt;Path&gt;" class="s0" d="m440.88 340.31c5.62 0.95 12.17 3.78 17.41 6.1c5.75 2.55 11.36 5.3 16.99 8.09c4.32 2.13 5.48 8.23 3.18 12.15c-2.6 4.44-7.78 5.16-12.15 3.18c-11.22-5.07-23.74-11.95-31.14-22.1c-2.88-3.95 1.89-8.06 5.71-7.42z" />
				<path id="&lt;Path&gt;" class="s0" d="m362.99 413.41c2.86 4.3 4.73 9.27 7.24 13.79c2.54 4.58 5.37 9 8.32 13.33c5.91 8.68-8.79 17.43-14.14 8.27c-5.61-9.59-11.58-21.15-12.57-32.36c-0.56-6.36 8.15-7.53 11.15-3.02z" />
				<path id="&lt;Path&gt;" class="s0" d="m250.49 434.75c2.43 9.65 0.41 21.18-1.15 30.86c-1.59 9.85-17.71 5.83-15.23-4.2c1.09-4.41 2.08-8.86 2.89-13.34c0.8-4.39 0.9-9.07 2.23-13.32c1.67-5.33 9.8-5.77 11.26 0z" />
				<path id="&lt;Path&gt;" class="s0" d="m161.7 406.71c-2.66 6.46-6.96 12.31-10.85 18.09c-5.11 7.59-15.83-0.83-9.86-7.61c4.6-5.22 9.17-10.87 14.74-15.07c2.74-2.06 7.27 1.42 5.97 4.59z" />
				<path id="&lt;Path&gt;" class="s0" d="m101.07 337.31c-7.05 6.03-15.87 10.32-23.57 15.5c-6.59 4.43-13.23-6.78-6.24-10.67c7.94-4.42 16.85-9.84 25.85-11.64c3.64-0.72 7.3 3.95 3.96 6.8z" />
			</g>
		</g>
	</g>
</svg>