<svg version="1.2" baseProfile="tiny-ps" xmlns="http://www.w3.org/2000/svg" viewBox="0 0 558 518" width="558" height="518">
	<title>OLVDDC1-ai</title>
	<style>
		tspan { white-space:pre }
		.s0 { fill: #1b2746 } 
		.s1 { fill: #fdcc13 } 
		.s2 { fill: #ffffff } 
		.s3 { fill: #1d1d1b } 
		.s4 { fill: #e8770a } 
		.s5 { fill: #de222b } 
	</style>
	<g id="Layer 1">
		<g id="&lt;Group&gt;">
			<path id="&lt;Path&gt;" class="s0" d="m442.23 66.16c83.6 77.21 160.54 254.4 84.09 359.25c-45.24 62.05-127.15 85.02-203.7 91.06c-94.65 7.46-200.23-9.67-261.38-82.31c-24.91-29.59-40.33-66.14-50.41-103.48c-9.63-35.64-14.68-73.48-6.29-109.42c20.93-89.66 92.93-156.24 173.9-192.77c27.84-12.56 56.87-23.44 87.22-26.83c64.23-7.17 129.09 20.67 176.57 64.51z" />
			<path id="&lt;Path&gt;" class="s1" d="m412.18 336.37c16.6 6.58 26.98 4.14 27.52 24.69c0.39 14.95-5.63 29.9-14.89 41.45c-26.03 32.45-71.25 50.41-110.63 58.01c-93.31 18.01-213.36-41.52-218-146.05c-3.15-70.99 28.13-132.24 77.7-181.02c16.44-16.18 55.05-51.35 70.85-16.8c18.26 39.93 18.35 84.55 45.98 121.19c30.04 39.83 73.13 79.39 121.48 98.54z" />
			<path id="&lt;Path&gt;" class="s2" d="m232.43 290.88c-17.17 3.14-35.84-4.23-46.23-18.26c-16.74-22.59-2.53-48.69 22.98-56.22c26.07-7.69 59.22 1.9 58.65 34.83c-0.33 19.19-16.53 36.19-35.4 39.65z" />
			<path id="&lt;Path&gt;" class="s3" d="m192.13 250.95c10.85 3.9 21.75 11.98 33.92 10.22c3.9-0.56 8.16-2.58 11.01-4.91c3.28-2.68 4.89-5.89 5.08-9.29c0.58-10.67 16.44-10.77 16.66 0c0.32 15.61-13.9 26.53-28.27 28.27c-15.08 1.83-32.1-6.86-42.38-17.45c-2.69-2.77-0.02-8.28 3.98-6.84z" />
			<path id="&lt;Path&gt;" class="s4" d="m308.52 314.51c-0.31-5.24 0.79-10.06 3.54-11.87c6.95-4.58 18.2 3.71 23.26 17.08c6.22 16.42 1.12 30.04-10.31 24.27c-8.1-4.09-15.81-17.87-16.49-29.48z" />
			<path id="&lt;Path&gt;" class="s5" d="m165.69 136.01c11.41-29.15 37.38-49.69 62.62-68.19c13.63-9.99 27.8-20.01 44.15-24.32c16.35-4.3 35.56-1.75 47.11 10.6c12.09 12.94 13.06 32.91 23.15 47.45c-3.63 3.66-8.3 6.27-13.31 7.46c-3.83-8.73-13.35-14.63-22.87-14.19c-9.53 0.45-18.45 7.21-21.45 16.26c-1.68 5.07-1.61 10.55-2.68 15.78c-3.68 18.03-20.68 30.93-38.54 35.35c-17.86 4.42-36.61 2.02-54.84-0.42c-19.5-2.6-15.69-7.66-23.33-25.79z" />
			<path id="&lt;Path&gt;" class="s2" d="m132.88 142.82c4.49-5.81 11.46-9.11 18.37-11.61c28.06-10.18 58.76-10.51 88.46-7.55c11.07 1.11 22.31 2.71 32.32 7.56c10.01 4.85 18.75 13.44 21.24 24.28c2.49 10.84-2.77 23.66-13.18 27.57c-4.88 1.83-10.25 1.64-15.46 1.41c-32.39-1.49-64.92-6.48-97.26-7.2c-17.05-0.38-57.61-4.57-34.49-34.46z" />
			<path id="&lt;Path&gt;" class="s2" d="m327.51 144.73c-26.26-5.91-24.11-46.28-2.86-57.42c6.8-3.56 12.7-4.69 17.68-4.04c29.66 3.88 26.61 70.77-14.82 61.45z" />
			<path id="&lt;Path&gt;" class="s2" d="m368.39 210.55c13.32 3.7 26.23 8.98 39.18 13.8c2.27 0.84 3.29 4.31 0.73 5.59c-13.74 6.9-27.84 14.2-39.75 24.03c-0.55-2.08-1.1-4.16-1.65-6.24c15.36 5.52 30.35 12.37 45.28 18.94c4.13 1.81 1.07 8.97-3.07 7.28c-15.1-6.17-30.45-12.18-45.09-19.39c-2.63-1.29-2.22-5.05 0-6.45c13.44-8.47 26.55-17.11 41.19-23.45c0 1.76 0 3.52 0 5.28c-12.63-5.54-25.57-10.72-37.69-17.33c-1.14-0.62-0.35-2.41 0.87-2.07z" />
			<path id="&lt;Path&gt;" class="s2" d="m409.71 143.57c20.61 5.49 39.47 15.42 57.01 27.4c1.98 1.35 2.52 4.79 0 6c-13.61 6.58-27.04 13.62-39.89 21.59c0.25-1.97 0.51-3.95 0.76-5.92c17.58 14.07 34.82 28.57 52.17 42.93c4.29 3.55-1.88 9.72-6.13 6.13c-17.16-14.52-34.46-28.91-51.38-43.72c-1.82-1.6-1.25-4.79 0.76-5.92c13.21-7.4 26.49-14.59 40.18-21.08c0 2 0 4 0 6c-17.22-11.96-35.74-21.85-54.28-31.55c-1.04-0.55-0.3-2.14 0.78-1.85z" />
			<path id="&lt;Path&gt;" class="s2" d="m479.27 428.9c-16.43 18.71-42.48 25.23-67.04 29.32c-88.52 14.74-178.96 10.61-268.59 6.43c-22.66-1.06-51.27-6.91-55.69-29.16c-2.76-13.88 6.2-27.36 16.24-37.34c7.17-7.12 15.52-13.64 25.4-15.78c9.88-2.14 21.5 1.17 26.54 9.93c-7.84-38.01 30.05-74.53 68.86-75.28c38.81-0.75 73.86 25.5 95.63 57.63c2.29-12.16 13.32-22.11 25.65-23.14c12.33-1.03 24.86 6.96 29.13 18.57c8.34-14.32 16.9-28.91 29.41-39.77c58.8-51.05 111.89 55.97 74.47 98.59z" />
			<path id="&lt;Path&gt;" class="s1" d="m512.54 289.76l10.25 5.27l11.15-2.9l-1.84 11.38l6.2 9.71l-11.39 1.77l-7.32 8.9l-5.2-10.29l-10.73-4.21l8.18-8.12l0.69-11.5z" />
			<path id="&lt;Path&gt;" class="s1" d="m44.12 186.11l16.9 8.68l18.39-4.77l-3.03 18.76l10.22 16.02l-18.78 2.91l-12.07 14.67l-8.57-16.96l-17.69-6.95l13.48-13.39l1.14-18.97z" />
		</g>
	</g>
</svg>