<svg width="1122" height="1000" viewBox="0 0 1122 1000" fill="none" xmlns="http://www.w3.org/2000/svg">
<path opacity="0.6" d="M784.862 1027.43H254.601V-25.1899H783.77C810.576 -25.1899 835.605 -9.73994 850.486 15.9801L1108.72 462.37C1126.43 493 1126.06 533.02 1107.79 563.2L850.625 987.87C835.614 1012.65 811.07 1027.41 784.871 1027.41L784.862 1027.43Z" fill="url(#paint0_linear_24_191)"/>
<path d="M607.924 1027.43H-6.95934V-25.1899H606.84C633.404 -25.1899 658.216 -9.87994 672.967 15.6201L949.798 494.16C956.428 505.62 956.289 520.59 949.451 531.89L673.097 988.24C658.225 1012.8 633.898 1027.43 607.932 1027.43H607.924Z" fill="url(#paint1_linear_24_191)"/>
<defs>
<linearGradient id="paint0_linear_24_191" x1="127.486" y1="-29.1999" x2="1888.99" y2="-29.1999" gradientUnits="userSpaceOnUse">
<stop offset="0.1" stop-color="#FF6544"/>
<stop offset="0.4" stop-color="#FEB540"/>
</linearGradient>
<linearGradient id="paint1_linear_24_191" x1="-148.373" y1="-29.1999" x2="1812.03" y2="-29.1999" gradientUnits="userSpaceOnUse">
<stop offset="0.1" stop-color="#DD7C0E"/>
<stop offset="0.4" stop-color="#F4BC33"/>
</linearGradient>
</defs>
</svg>
