<svg id="visual" viewBox="0 0 900 600" width="900" height="600" xmlns="http://www.w3.org/2000/svg" xmlns:xlink="http://www.w3.org/1999/xlink" version="1.1"><rect x="0" y="0" width="900" height="600" fill="#F4BC33"></rect><defs><linearGradient id="grad1_0" x1="33.3%" y1="0%" x2="100%" y2="100%"><stop offset="20%" stop-color="#dd7c0e" stop-opacity="1"></stop><stop offset="80%" stop-color="#dd7c0e" stop-opacity="1"></stop></linearGradient></defs><defs><linearGradient id="grad1_1" x1="33.3%" y1="0%" x2="100%" y2="100%"><stop offset="20%" stop-color="#dd7c0e" stop-opacity="1"></stop><stop offset="80%" stop-color="#e18512" stop-opacity="1"></stop></linearGradient></defs><defs><linearGradient id="grad1_2" x1="33.3%" y1="0%" x2="100%" y2="100%"><stop offset="20%" stop-color="#e48e16" stop-opacity="1"></stop><stop offset="80%" stop-color="#e18512" stop-opacity="1"></stop></linearGradient></defs><defs><linearGradient id="grad1_3" x1="33.3%" y1="0%" x2="100%" y2="100%"><stop offset="20%" stop-color="#e48e16" stop-opacity="1"></stop><stop offset="80%" stop-color="#e8981b" stop-opacity="1"></stop></linearGradient></defs><defs><linearGradient id="grad1_4" x1="33.3%" y1="0%" x2="100%" y2="100%"><stop offset="20%" stop-color="#eba121" stop-opacity="1"></stop><stop offset="80%" stop-color="#e8981b" stop-opacity="1"></stop></linearGradient></defs><defs><linearGradient id="grad1_5" x1="33.3%" y1="0%" x2="100%" y2="100%"><stop offset="20%" stop-color="#eba121" stop-opacity="1"></stop><stop offset="80%" stop-color="#eeaa26" stop-opacity="1"></stop></linearGradient></defs><defs><linearGradient id="grad1_6" x1="33.3%" y1="0%" x2="100%" y2="100%"><stop offset="20%" stop-color="#f1b32d" stop-opacity="1"></stop><stop offset="80%" stop-color="#eeaa26" stop-opacity="1"></stop></linearGradient></defs><defs><linearGradient id="grad1_7" x1="33.3%" y1="0%" x2="100%" y2="100%"><stop offset="20%" stop-color="#f1b32d" stop-opacity="1"></stop><stop offset="80%" stop-color="#f4bc33" stop-opacity="1"></stop></linearGradient></defs><defs><linearGradient id="grad2_0" x1="0%" y1="0%" x2="66.7%" y2="100%"><stop offset="20%" stop-color="#dd7c0e" stop-opacity="1"></stop><stop offset="80%" stop-color="#dd7c0e" stop-opacity="1"></stop></linearGradient></defs><defs><linearGradient id="grad2_1" x1="0%" y1="0%" x2="66.7%" y2="100%"><stop offset="20%" stop-color="#e18512" stop-opacity="1"></stop><stop offset="80%" stop-color="#dd7c0e" stop-opacity="1"></stop></linearGradient></defs><defs><linearGradient id="grad2_2" x1="0%" y1="0%" x2="66.7%" y2="100%"><stop offset="20%" stop-color="#e18512" stop-opacity="1"></stop><stop offset="80%" stop-color="#e48e16" stop-opacity="1"></stop></linearGradient></defs><defs><linearGradient id="grad2_3" x1="0%" y1="0%" x2="66.7%" y2="100%"><stop offset="20%" stop-color="#e8981b" stop-opacity="1"></stop><stop offset="80%" stop-color="#e48e16" stop-opacity="1"></stop></linearGradient></defs><defs><linearGradient id="grad2_4" x1="0%" y1="0%" x2="66.7%" y2="100%"><stop offset="20%" stop-color="#e8981b" stop-opacity="1"></stop><stop offset="80%" stop-color="#eba121" stop-opacity="1"></stop></linearGradient></defs><defs><linearGradient id="grad2_5" x1="0%" y1="0%" x2="66.7%" y2="100%"><stop offset="20%" stop-color="#eeaa26" stop-opacity="1"></stop><stop offset="80%" stop-color="#eba121" stop-opacity="1"></stop></linearGradient></defs><defs><linearGradient id="grad2_6" x1="0%" y1="0%" x2="66.7%" y2="100%"><stop offset="20%" stop-color="#eeaa26" stop-opacity="1"></stop><stop offset="80%" stop-color="#f1b32d" stop-opacity="1"></stop></linearGradient></defs><defs><linearGradient id="grad2_7" x1="0%" y1="0%" x2="66.7%" y2="100%"><stop offset="20%" stop-color="#f4bc33" stop-opacity="1"></stop><stop offset="80%" stop-color="#f1b32d" stop-opacity="1"></stop></linearGradient></defs><g transform="translate(900, 0)"><path d="M0 486.7C-60.1 478.5 -120.2 470.2 -186.3 449.7C-252.3 429.2 -324.2 396.3 -337.3 337.3C-350.4 278.2 -304.6 193 -319.7 132.4C-334.8 71.8 -410.8 35.9 -486.7 0L0 0Z" fill="#f3b730"></path><path d="M0 425.9C-52.6 418.7 -105.2 411.5 -163 393.5C-220.8 375.5 -283.7 346.8 -295.1 295.1C-306.6 243.5 -266.5 168.9 -279.7 115.9C-292.9 62.8 -359.4 31.4 -425.9 0L0 0Z" fill="#f0ae29"></path><path d="M0 365.1C-45.1 358.9 -90.2 352.7 -139.7 337.3C-189.2 321.9 -243.2 297.2 -253 253C-262.8 208.7 -228.4 144.7 -239.7 99.3C-251.1 53.9 -308.1 26.9 -365.1 0L0 0Z" fill="#eda524"></path><path d="M0 304.2C-37.6 299.1 -75.2 293.9 -116.4 281.1C-157.7 268.2 -202.6 247.7 -210.8 210.8C-219 173.9 -190.4 120.6 -199.8 82.8C-209.2 44.9 -256.7 22.4 -304.2 0L0 0Z" fill="#ea9c1e"></path><path d="M0 243.4C-30.1 239.2 -60.1 235.1 -93.1 224.8C-126.1 214.6 -162.1 198.2 -168.6 168.6C-175.2 139.1 -152.3 96.5 -159.8 66.2C-167.4 35.9 -205.4 18 -243.4 0L0 0Z" fill="#e69319"></path><path d="M0 182.5C-22.5 179.4 -45.1 176.3 -69.9 168.6C-94.6 160.9 -121.6 148.6 -126.5 126.5C-131.4 104.3 -114.2 72.4 -119.9 49.7C-125.5 26.9 -154 13.5 -182.5 0L0 0Z" fill="#e38a14"></path><path d="M0 121.7C-15 119.6 -30.1 117.6 -46.6 112.4C-63.1 107.3 -81.1 99.1 -84.3 84.3C-87.6 69.6 -76.1 48.2 -79.9 33.1C-83.7 18 -102.7 9 -121.7 0L0 0Z" fill="#df8110"></path><path d="M0 60.8C-7.5 59.8 -15 58.8 -23.3 56.2C-31.5 53.6 -40.5 49.5 -42.2 42.2C-43.8 34.8 -38.1 24.1 -40 16.6C-41.8 9 -51.3 4.5 -60.8 0L0 0Z" fill="#dd7c0e"></path></g><g transform="translate(0, 600)"><path d="M0 -486.7C37.5 -404 75.1 -321.2 121.3 -292.9C167.5 -264.5 222.4 -290.6 284.3 -284.3C346.1 -277.9 414.8 -239.1 449.7 -186.3C484.6 -133.5 485.7 -66.7 486.7 0L0 0Z" fill="#f3b730"></path><path d="M0 -425.9C32.9 -353.5 65.7 -281.1 106.1 -256.3C146.6 -231.5 194.6 -254.3 248.7 -248.7C302.8 -243.2 362.9 -209.2 393.5 -163C424 -116.8 425 -58.4 425.9 0L0 0Z" fill="#f0ae29"></path><path d="M0 -365.1C28.2 -303 56.3 -240.9 91 -219.7C125.7 -198.4 166.8 -218 213.2 -213.2C259.6 -208.4 311.1 -179.3 337.3 -139.7C363.4 -100.1 364.3 -50.1 365.1 0L0 0Z" fill="#eda524"></path><path d="M0 -304.2C23.5 -252.5 46.9 -200.8 75.8 -183C104.7 -165.3 139 -181.6 177.7 -177.7C216.3 -173.7 259.2 -149.4 281.1 -116.4C302.9 -83.4 303.5 -41.7 304.2 0L0 0Z" fill="#ea9c1e"></path><path d="M0 -243.4C18.8 -202 37.5 -160.6 60.7 -146.4C83.8 -132.3 111.2 -145.3 142.1 -142.1C173 -138.9 207.4 -119.5 224.8 -93.1C242.3 -66.7 242.8 -33.4 243.4 0L0 0Z" fill="#e69319"></path><path d="M0 -182.5C14.1 -151.5 28.2 -120.5 45.5 -109.8C62.8 -99.2 83.4 -109 106.6 -106.6C129.8 -104.2 155.5 -89.6 168.6 -69.9C181.7 -50.1 182.1 -25 182.5 0L0 0Z" fill="#e38a14"></path><path d="M0 -121.7C9.4 -101 18.8 -80.3 30.3 -73.2C41.9 -66.1 55.6 -72.7 71.1 -71.1C86.5 -69.5 103.7 -59.8 112.4 -46.6C121.1 -33.4 121.4 -16.7 121.7 0L0 0Z" fill="#df8110"></path><path d="M0 -60.8C4.7 -50.5 9.4 -40.2 15.2 -36.6C20.9 -33.1 27.8 -36.3 35.5 -35.5C43.3 -34.7 51.8 -29.9 56.2 -23.3C60.6 -16.7 60.7 -8.3 60.8 0L0 0Z" fill="#dd7c0e"></path></g></svg>