<svg id="visual" viewBox="0 0 900 600" width="900" height="600" xmlns="http://www.w3.org/2000/svg" xmlns:xlink="http://www.w3.org/1999/xlink" version="1.1"><rect x="0" y="0" width="900" height="600" fill="#F4BC33"></rect><defs><linearGradient id="grad1_0" x1="33.3%" y1="0%" x2="100%" y2="100%"><stop offset="20%" stop-color="#1a1a1a" stop-opacity="1"></stop><stop offset="80%" stop-color="#1a1a1a" stop-opacity="1"></stop></linearGradient></defs><defs><linearGradient id="grad1_1" x1="33.3%" y1="0%" x2="100%" y2="100%"><stop offset="20%" stop-color="#1a1a1a" stop-opacity="1"></stop><stop offset="80%" stop-color="#362e20" stop-opacity="1"></stop></linearGradient></defs><defs><linearGradient id="grad1_2" x1="33.3%" y1="0%" x2="100%" y2="100%"><stop offset="20%" stop-color="#524325" stop-opacity="1"></stop><stop offset="80%" stop-color="#362e20" stop-opacity="1"></stop></linearGradient></defs><defs><linearGradient id="grad1_3" x1="33.3%" y1="0%" x2="100%" y2="100%"><stop offset="20%" stop-color="#524325" stop-opacity="1"></stop><stop offset="80%" stop-color="#70592a" stop-opacity="1"></stop></linearGradient></defs><defs><linearGradient id="grad1_4" x1="33.3%" y1="0%" x2="100%" y2="100%"><stop offset="20%" stop-color="#90712d" stop-opacity="1"></stop><stop offset="80%" stop-color="#70592a" stop-opacity="1"></stop></linearGradient></defs><defs><linearGradient id="grad1_5" x1="33.3%" y1="0%" x2="100%" y2="100%"><stop offset="20%" stop-color="#90712d" stop-opacity="1"></stop><stop offset="80%" stop-color="#b08930" stop-opacity="1"></stop></linearGradient></defs><defs><linearGradient id="grad1_6" x1="33.3%" y1="0%" x2="100%" y2="100%"><stop offset="20%" stop-color="#d2a232" stop-opacity="1"></stop><stop offset="80%" stop-color="#b08930" stop-opacity="1"></stop></linearGradient></defs><defs><linearGradient id="grad1_7" x1="33.3%" y1="0%" x2="100%" y2="100%"><stop offset="20%" stop-color="#d2a232" stop-opacity="1"></stop><stop offset="80%" stop-color="#f4bc33" stop-opacity="1"></stop></linearGradient></defs><defs><linearGradient id="grad2_0" x1="0%" y1="0%" x2="66.7%" y2="100%"><stop offset="20%" stop-color="#1a1a1a" stop-opacity="1"></stop><stop offset="80%" stop-color="#1a1a1a" stop-opacity="1"></stop></linearGradient></defs><defs><linearGradient id="grad2_1" x1="0%" y1="0%" x2="66.7%" y2="100%"><stop offset="20%" stop-color="#362e20" stop-opacity="1"></stop><stop offset="80%" stop-color="#1a1a1a" stop-opacity="1"></stop></linearGradient></defs><defs><linearGradient id="grad2_2" x1="0%" y1="0%" x2="66.7%" y2="100%"><stop offset="20%" stop-color="#362e20" stop-opacity="1"></stop><stop offset="80%" stop-color="#524325" stop-opacity="1"></stop></linearGradient></defs><defs><linearGradient id="grad2_3" x1="0%" y1="0%" x2="66.7%" y2="100%"><stop offset="20%" stop-color="#70592a" stop-opacity="1"></stop><stop offset="80%" stop-color="#524325" stop-opacity="1"></stop></linearGradient></defs><defs><linearGradient id="grad2_4" x1="0%" y1="0%" x2="66.7%" y2="100%"><stop offset="20%" stop-color="#70592a" stop-opacity="1"></stop><stop offset="80%" stop-color="#90712d" stop-opacity="1"></stop></linearGradient></defs><defs><linearGradient id="grad2_5" x1="0%" y1="0%" x2="66.7%" y2="100%"><stop offset="20%" stop-color="#b08930" stop-opacity="1"></stop><stop offset="80%" stop-color="#90712d" stop-opacity="1"></stop></linearGradient></defs><defs><linearGradient id="grad2_6" x1="0%" y1="0%" x2="66.7%" y2="100%"><stop offset="20%" stop-color="#b08930" stop-opacity="1"></stop><stop offset="80%" stop-color="#d2a232" stop-opacity="1"></stop></linearGradient></defs><defs><linearGradient id="grad2_7" x1="0%" y1="0%" x2="66.7%" y2="100%"><stop offset="20%" stop-color="#f4bc33" stop-opacity="1"></stop><stop offset="80%" stop-color="#d2a232" stop-opacity="1"></stop></linearGradient></defs><g transform="translate(900, 0)"><path d="M0 459.7C-53.2 418 -106.4 376.3 -139.3 336.3C-172.2 296.2 -184.7 257.8 -236.9 236.9C-289.1 215.9 -381 212.5 -424.7 175.9C-468.5 139.4 -464.1 69.7 -459.7 0L0 0Z" fill="#e3af33"></path><path d="M0 402.2C-46.6 365.8 -93.1 329.3 -121.9 294.3C-150.6 259.2 -161.6 225.6 -207.3 207.3C-252.9 189 -333.3 185.9 -371.6 153.9C-409.9 121.9 -406.1 61 -402.2 0L0 0Z" fill="#c19531"></path><path d="M0 344.8C-39.9 313.5 -79.8 282.3 -104.5 252.2C-129.1 222.2 -138.5 193.4 -177.7 177.7C-216.8 162 -285.7 159.4 -318.5 131.9C-351.3 104.5 -348.1 52.3 -344.8 0L0 0Z" fill="#a07d2f"></path><path d="M0 287.3C-33.3 261.3 -66.5 235.2 -87.1 210.2C-107.6 185.2 -115.4 161.1 -148.1 148.1C-180.7 135 -238.1 132.8 -265.4 110C-292.8 87.1 -290.1 43.5 -287.3 0L0 0Z" fill="#80652c"></path><path d="M0 229.9C-26.6 209 -53.2 188.2 -69.6 168.1C-86.1 148.1 -92.3 128.9 -118.4 118.4C-144.5 108 -190.5 106.2 -212.4 88C-234.2 69.7 -232 34.8 -229.9 0L0 0Z" fill="#614e28"></path><path d="M0 172.4C-20 156.8 -39.9 141.1 -52.2 126.1C-64.6 111.1 -69.3 96.7 -88.8 88.8C-108.4 81 -142.9 79.7 -159.3 66C-175.7 52.3 -174 26.1 -172.4 0L0 0Z" fill="#443823"></path><path d="M0 114.9C-13.3 104.5 -26.6 94.1 -34.8 84.1C-43 74.1 -46.2 64.5 -59.2 59.2C-72.3 54 -95.2 53.1 -106.2 44C-117.1 34.8 -116 17.4 -114.9 0L0 0Z" fill="#28241d"></path><path d="M0 57.5C-6.7 52.3 -13.3 47 -17.4 42C-21.5 37 -23.1 32.2 -29.6 29.6C-36.1 27 -47.6 26.6 -53.1 22C-58.6 17.4 -58 8.7 -57.5 0L0 0Z" fill="#1a1a1a"></path></g><g transform="translate(0, 600)"><path d="M0 -459.7C64.3 -459.4 128.6 -459 175.9 -424.7C223.3 -390.4 253.7 -322.1 266.6 -266.6C279.4 -211 274.7 -168.2 304 -125.9C333.2 -83.6 396.5 -41.8 459.7 0L0 0Z" fill="#e3af33"></path><path d="M0 -402.2C56.2 -401.9 112.5 -401.6 153.9 -371.6C195.4 -341.6 222 -281.9 233.3 -233.3C244.5 -184.7 240.4 -147.2 266 -110.2C291.6 -73.1 346.9 -36.6 402.2 0L0 0Z" fill="#c19531"></path><path d="M0 -344.8C48.2 -344.5 96.4 -344.3 131.9 -318.5C167.5 -292.8 190.3 -241.6 199.9 -199.9C209.6 -158.3 206 -126.2 228 -94.4C249.9 -62.7 297.3 -31.3 344.8 0L0 0Z" fill="#a07d2f"></path><path d="M0 -287.3C40.2 -287.1 80.4 -286.9 110 -265.4C139.6 -244 158.6 -201.3 166.6 -166.6C174.6 -131.9 171.7 -105.1 190 -78.7C208.3 -52.2 247.8 -26.1 287.3 0L0 0Z" fill="#80652c"></path><path d="M0 -229.9C32.1 -229.7 64.3 -229.5 88 -212.4C111.6 -195.2 126.9 -161.1 133.3 -133.3C139.7 -105.5 137.3 -84.1 152 -63C166.6 -41.8 198.2 -20.9 229.9 0L0 0Z" fill="#614e28"></path><path d="M0 -172.4C24.1 -172.3 48.2 -172.1 66 -159.3C83.7 -146.4 95.1 -120.8 100 -100C104.8 -79.1 103 -63.1 114 -47.2C125 -31.3 148.7 -15.7 172.4 0L0 0Z" fill="#443823"></path><path d="M0 -114.9C16.1 -114.8 32.1 -114.8 44 -106.2C55.8 -97.6 63.4 -80.5 66.6 -66.6C69.9 -52.8 68.7 -42.1 76 -31.5C83.3 -20.9 99.1 -10.4 114.9 0L0 0Z" fill="#28241d"></path><path d="M0 -57.5C8 -57.4 16.1 -57.4 22 -53.1C27.9 -48.8 31.7 -40.3 33.3 -33.3C34.9 -26.4 34.3 -21 38 -15.7C41.7 -10.4 49.6 -5.2 57.5 0L0 0Z" fill="#1a1a1a"></path></g></svg>