<svg width="1300" height="1000" viewBox="0 0 1300 1000" fill="none" xmlns="http://www.w3.org/2000/svg">
<g clip-path="url(#clip0_24_190)">
<path opacity="0.6" d="M784.862 1027.43H254.601V-25.1901H783.77C810.576 -25.1901 835.605 -9.74006 850.486 15.9799L1108.72 462.37C1126.43 493 1126.06 533.02 1107.79 563.2L850.625 987.87C835.614 1012.65 811.07 1027.41 784.871 1027.41L784.862 1027.43Z" fill="url(#paint0_linear_24_190)"/>
<path d="M607.924 1027.43H-6.95934V-25.1901H606.84C633.404 -25.1901 658.216 -9.88006 672.967 15.6199L949.798 494.16C956.428 505.62 956.289 520.59 949.451 531.89L673.097 988.24C658.225 1012.8 633.898 1027.43 607.932 1027.43H607.924Z" fill="url(#paint1_linear_24_190)"/>
<path opacity="0.7" d="M1454.95 -38.3V481.3H1346.52C1321.41 481.3 1297.77 467.6 1282.78 444.35L967.544 -44.42L1454.95 -38.31V-38.3Z" fill="url(#paint2_linear_24_190)"/>
<path opacity="0.7" d="M967.544 1042.67L1282.78 553.9C1297.77 530.65 1321.41 516.95 1346.52 516.95H1454.95V1036.55L967.544 1042.66V1042.67Z" fill="url(#paint3_linear_24_190)"/>
</g>
<defs>
<linearGradient id="paint0_linear_24_190" x1="127.486" y1="-29.2" x2="1888.99" y2="-29.2" gradientUnits="userSpaceOnUse">
<stop offset="0.1" stop-color="#FF6544"/>
<stop offset="0.4" stop-color="#FEB540"/>
</linearGradient>
<linearGradient id="paint1_linear_24_190" x1="-148.373" y1="-29.2001" x2="1812.03" y2="-29.2001" gradientUnits="userSpaceOnUse">
<stop offset="0.1" stop-color="#DD7C0E"/>
<stop offset="0.4" stop-color="#F4BC33"/>
</linearGradient>
<linearGradient id="paint2_linear_24_190" x1="1244.53" y1="711" x2="2081.69" y2="41.0213" gradientUnits="userSpaceOnUse">
<stop offset="0.1" stop-color="#F4BC33"/>
<stop offset="0.3" stop-color="#FEB540" stop-opacity="0"/>
</linearGradient>
<linearGradient id="paint3_linear_24_190" x1="1244.53" y1="287.3" x2="2081.69" y2="957.279" gradientUnits="userSpaceOnUse">
<stop offset="0.1" stop-color="#F4BC33"/>
<stop offset="0.3" stop-color="#FEB540" stop-opacity="0"/>
</linearGradient>
<clipPath id="clip0_24_190">
<rect width="1300" height="1000" fill="white"/>
</clipPath>
</defs>
</svg>
