<svg width="476" height="56" viewBox="0 0 476 56" fill="none" xmlns="http://www.w3.org/2000/svg">
<g opacity="0.5">
<path opacity="0.5" d="M9.03679 4.44461C9.03679 6.89905 7.01356 8.88926 4.51839 8.88926C2.02323 8.88926 0 6.89905 0 4.44461C0 1.99018 2.02323 0 4.51839 0C7.01356 0 9.03679 1.99018 9.03679 4.44461Z" fill="#E2B544"/>
<path opacity="0.5" d="M33.8966 4.44456C33.8966 6.89897 31.8734 8.88915 29.3783 8.88915C26.8831 8.88915 24.8599 6.89897 24.8599 4.44456C24.8599 1.99016 26.8831 0 29.3783 0C31.8734 0 33.8966 1.99016 33.8966 4.44456Z" fill="#E2B544"/>
<path opacity="0.5" d="M58.7564 4.44456C58.7564 6.89897 56.7333 8.88915 54.2381 8.88915C51.743 8.88915 49.7198 6.89897 49.7198 4.44456C49.7198 1.99016 51.743 0 54.2381 0C56.7333 0 58.7564 1.99016 58.7564 4.44456Z" fill="#E2B544"/>
<path opacity="0.5" d="M83.6164 4.44456C83.6164 6.89897 81.5932 8.88915 79.098 8.88915C76.6029 8.88915 74.5797 6.89897 74.5797 4.44456C74.5797 1.99016 76.6029 0 79.098 0C81.5932 0 83.6164 1.99016 83.6164 4.44456Z" fill="#E2B544"/>
<path opacity="0.5" d="M108.476 4.44456C108.476 6.89897 106.453 8.88915 103.958 8.88915C101.463 8.88915 99.4396 6.89897 99.4396 4.44456C99.4396 1.99016 101.463 0 103.958 0C106.453 0 108.476 1.99016 108.476 4.44456Z" fill="#E2B544"/>
</g>
<g opacity="0.5">
<path opacity="0.5" d="M9.03679 20.0095C9.03679 22.4639 7.01356 24.4541 4.51839 24.4541C2.02323 24.4541 0 22.4639 0 20.0095C0 17.555 2.02323 15.5648 4.51839 15.5648C7.01356 15.5648 9.03679 17.555 9.03679 20.0095Z" fill="#E2B544"/>
<path opacity="0.5" d="M33.8966 20.0095C33.8966 22.4639 31.8734 24.4541 29.3783 24.4541C26.8831 24.4541 24.8599 22.4639 24.8599 20.0095C24.8599 17.555 26.8831 15.5648 29.3783 15.5648C31.8734 15.5648 33.8966 17.555 33.8966 20.0095Z" fill="#E2B544"/>
<path opacity="0.5" d="M58.7564 20.0095C58.7564 22.4639 56.7333 24.4541 54.2381 24.4541C51.743 24.4541 49.7198 22.4639 49.7198 20.0095C49.7198 17.555 51.743 15.5648 54.2381 15.5648C56.7333 15.5648 58.7564 17.555 58.7564 20.0095Z" fill="#E2B544"/>
<path opacity="0.5" d="M83.6164 20.0095C83.6164 22.4639 81.5932 24.4541 79.098 24.4541C76.6029 24.4541 74.5797 22.4639 74.5797 20.0095C74.5797 17.555 76.6029 15.5648 79.098 15.5648C81.5932 15.5648 83.6164 17.555 83.6164 20.0095Z" fill="#E2B544"/>
<path opacity="0.5" d="M108.476 20.0095C108.476 22.4639 106.453 24.4541 103.958 24.4541C101.463 24.4541 99.4396 22.4639 99.4396 20.0095C99.4396 17.555 101.463 15.5648 103.958 15.5648C106.453 15.5648 108.476 17.555 108.476 20.0095Z" fill="#E2B544"/>
</g>
<g opacity="0.5">
<path opacity="0.5" d="M9.03679 35.5699C9.03679 38.0243 7.01356 40.0145 4.51839 40.0145C2.02323 40.0145 0 38.0243 0 35.5699C0 33.1155 2.02323 31.1252 4.51839 31.1252C7.01356 31.1252 9.03679 33.1155 9.03679 35.5699Z" fill="#E2B544"/>
<path opacity="0.5" d="M33.8966 35.5699C33.8966 38.0243 31.8734 40.0145 29.3783 40.0145C26.8831 40.0145 24.8599 38.0243 24.8599 35.5699C24.8599 33.1155 26.8831 31.1252 29.3783 31.1252C31.8734 31.1252 33.8966 33.1155 33.8966 35.5699Z" fill="#E2B544"/>
<path opacity="0.5" d="M58.7564 35.5699C58.7564 38.0243 56.7333 40.0145 54.2381 40.0145C51.743 40.0145 49.7198 38.0243 49.7198 35.5699C49.7198 33.1155 51.743 31.1252 54.2381 31.1252C56.7333 31.1252 58.7564 33.1155 58.7564 35.5699Z" fill="#E2B544"/>
<path opacity="0.5" d="M83.6164 35.5699C83.6164 38.0243 81.5932 40.0145 79.098 40.0145C76.6029 40.0145 74.5797 38.0243 74.5797 35.5699C74.5797 33.1155 76.6029 31.1252 79.098 31.1252C81.5932 31.1252 83.6164 33.1155 83.6164 35.5699Z" fill="#E2B544"/>
<path opacity="0.5" d="M108.476 35.5699C108.476 38.0243 106.453 40.0145 103.958 40.0145C101.463 40.0145 99.4396 38.0243 99.4396 35.5699C99.4396 33.1155 101.463 31.1252 103.958 31.1252C106.453 31.1252 108.476 33.1155 108.476 35.5699Z" fill="#E2B544"/>
</g>
<g opacity="0.5">
<path opacity="0.5" d="M9.03679 51.1304C9.03679 53.5848 7.01356 55.575 4.51839 55.575C2.02323 55.575 0 53.5848 0 51.1304C0 48.676 2.02323 46.6858 4.51839 46.6858C7.01356 46.6858 9.03679 48.676 9.03679 51.1304Z" fill="#E2B544"/>
<path opacity="0.5" d="M33.8966 51.1304C33.8966 53.5848 31.8734 55.575 29.3783 55.575C26.8831 55.575 24.8599 53.5848 24.8599 51.1304C24.8599 48.676 26.8831 46.6858 29.3783 46.6858C31.8734 46.6858 33.8966 48.676 33.8966 51.1304Z" fill="#E2B544"/>
<path opacity="0.5" d="M58.7564 51.1304C58.7564 53.5848 56.7333 55.575 54.2381 55.575C51.743 55.575 49.7198 53.5848 49.7198 51.1304C49.7198 48.676 51.743 46.6858 54.2381 46.6858C56.7333 46.6858 58.7564 48.676 58.7564 51.1304Z" fill="#E2B544"/>
<path opacity="0.5" d="M83.6164 51.1304C83.6164 53.5848 81.5932 55.575 79.098 55.575C76.6029 55.575 74.5797 53.5848 74.5797 51.1304C74.5797 48.676 76.6029 46.6858 79.098 46.6858C81.5932 46.6858 83.6164 48.676 83.6164 51.1304Z" fill="#E2B544"/>
<path opacity="0.5" d="M108.476 51.1304C108.476 53.5848 106.453 55.575 103.958 55.575C101.463 55.575 99.4396 53.5848 99.4396 51.1304C99.4396 48.676 101.463 46.6858 103.958 46.6858C106.453 46.6858 108.476 48.676 108.476 51.1304Z" fill="#E2B544"/>
</g>
<g opacity="0.5">
<path opacity="0.5" d="M131.44 4.44456C131.44 6.89897 129.417 8.88915 126.921 8.88915C124.426 8.88915 122.403 6.89897 122.403 4.44456C122.403 1.99016 124.426 0 126.921 0C129.417 0 131.44 1.99016 131.44 4.44456Z" fill="#E2B544"/>
<path opacity="0.5" d="M156.3 4.44456C156.3 6.89897 154.276 8.88915 151.781 8.88915C149.286 8.88915 147.263 6.89897 147.263 4.44456C147.263 1.99016 149.286 0 151.781 0C154.276 0 156.3 1.99016 156.3 4.44456Z" fill="#E2B544"/>
<path opacity="0.5" d="M181.16 4.44456C181.16 6.89897 179.136 8.88915 176.641 8.88915C174.146 8.88915 172.123 6.89897 172.123 4.44456C172.123 1.99016 174.146 0 176.641 0C179.136 0 181.16 1.99016 181.16 4.44456Z" fill="#E2B544"/>
<path opacity="0.5" d="M206.019 4.44456C206.019 6.89897 203.996 8.88915 201.501 8.88915C199.006 8.88915 196.983 6.89897 196.983 4.44456C196.983 1.99016 199.006 0 201.501 0C203.996 0 206.019 1.99016 206.019 4.44456Z" fill="#E2B544"/>
<path opacity="0.5" d="M230.879 4.44456C230.879 6.89897 228.856 8.88915 226.361 8.88915C223.866 8.88915 221.843 6.89897 221.843 4.44456C221.843 1.99016 223.866 0 226.361 0C228.856 0 230.879 1.99016 230.879 4.44456Z" fill="#E2B544"/>
</g>
<g opacity="0.5">
<path opacity="0.5" d="M131.44 20.0095C131.44 22.4639 129.417 24.4541 126.921 24.4541C124.426 24.4541 122.403 22.4639 122.403 20.0095C122.403 17.555 124.426 15.5648 126.921 15.5648C129.417 15.5648 131.44 17.555 131.44 20.0095Z" fill="#E2B544"/>
<path opacity="0.5" d="M156.3 20.0095C156.3 22.4639 154.276 24.4541 151.781 24.4541C149.286 24.4541 147.263 22.4639 147.263 20.0095C147.263 17.555 149.286 15.5648 151.781 15.5648C154.276 15.5648 156.3 17.555 156.3 20.0095Z" fill="#E2B544"/>
<path opacity="0.5" d="M181.16 20.0095C181.16 22.4639 179.136 24.4541 176.641 24.4541C174.146 24.4541 172.123 22.4639 172.123 20.0095C172.123 17.555 174.146 15.5648 176.641 15.5648C179.136 15.5648 181.16 17.555 181.16 20.0095Z" fill="#E2B544"/>
<path opacity="0.5" d="M206.019 20.0095C206.019 22.4639 203.996 24.4541 201.501 24.4541C199.006 24.4541 196.983 22.4639 196.983 20.0095C196.983 17.555 199.006 15.5648 201.501 15.5648C203.996 15.5648 206.019 17.555 206.019 20.0095Z" fill="#E2B544"/>
<path opacity="0.5" d="M230.879 20.0095C230.879 22.4639 228.856 24.4541 226.361 24.4541C223.866 24.4541 221.843 22.4639 221.843 20.0095C221.843 17.555 223.866 15.5648 226.361 15.5648C228.856 15.5648 230.879 17.555 230.879 20.0095Z" fill="#E2B544"/>
</g>
<g opacity="0.5">
<path opacity="0.5" d="M131.44 35.5699C131.44 38.0243 129.417 40.0145 126.921 40.0145C124.426 40.0145 122.403 38.0243 122.403 35.5699C122.403 33.1155 124.426 31.1252 126.921 31.1252C129.417 31.1252 131.44 33.1155 131.44 35.5699Z" fill="#E2B544"/>
<path opacity="0.5" d="M156.3 35.5699C156.3 38.0243 154.276 40.0145 151.781 40.0145C149.286 40.0145 147.263 38.0243 147.263 35.5699C147.263 33.1155 149.286 31.1252 151.781 31.1252C154.276 31.1252 156.3 33.1155 156.3 35.5699Z" fill="#E2B544"/>
<path opacity="0.5" d="M181.16 35.5699C181.16 38.0243 179.136 40.0145 176.641 40.0145C174.146 40.0145 172.123 38.0243 172.123 35.5699C172.123 33.1155 174.146 31.1252 176.641 31.1252C179.136 31.1252 181.16 33.1155 181.16 35.5699Z" fill="#E2B544"/>
<path opacity="0.5" d="M206.019 35.5699C206.019 38.0243 203.996 40.0145 201.501 40.0145C199.006 40.0145 196.983 38.0243 196.983 35.5699C196.983 33.1155 199.006 31.1252 201.501 31.1252C203.996 31.1252 206.019 33.1155 206.019 35.5699Z" fill="#E2B544"/>
<path opacity="0.5" d="M230.879 35.5699C230.879 38.0243 228.856 40.0145 226.361 40.0145C223.866 40.0145 221.843 38.0243 221.843 35.5699C221.843 33.1155 223.866 31.1252 226.361 31.1252C228.856 31.1252 230.879 33.1155 230.879 35.5699Z" fill="#E2B544"/>
</g>
<g opacity="0.5">
<path opacity="0.5" d="M131.44 51.1304C131.44 53.5848 129.417 55.575 126.921 55.575C124.426 55.575 122.403 53.5848 122.403 51.1304C122.403 48.676 124.426 46.6858 126.921 46.6858C129.417 46.6858 131.44 48.676 131.44 51.1304Z" fill="#E2B544"/>
<path opacity="0.5" d="M156.3 51.1304C156.3 53.5848 154.276 55.575 151.781 55.575C149.286 55.575 147.263 53.5848 147.263 51.1304C147.263 48.676 149.286 46.6858 151.781 46.6858C154.276 46.6858 156.3 48.676 156.3 51.1304Z" fill="#E2B544"/>
<path opacity="0.5" d="M181.16 51.1304C181.16 53.5848 179.136 55.575 176.641 55.575C174.146 55.575 172.123 53.5848 172.123 51.1304C172.123 48.676 174.146 46.6858 176.641 46.6858C179.136 46.6858 181.16 48.676 181.16 51.1304Z" fill="#E2B544"/>
<path opacity="0.5" d="M206.019 51.1304C206.019 53.5848 203.996 55.575 201.501 55.575C199.006 55.575 196.983 53.5848 196.983 51.1304C196.983 48.676 199.006 46.6858 201.501 46.6858C203.996 46.6858 206.019 48.676 206.019 51.1304Z" fill="#E2B544"/>
<path opacity="0.5" d="M230.879 51.1304C230.879 53.5848 228.856 55.575 226.361 55.575C223.866 55.575 221.843 53.5848 221.843 51.1304C221.843 48.676 223.866 46.6858 226.361 46.6858C228.856 46.6858 230.879 48.676 230.879 51.1304Z" fill="#E2B544"/>
</g>
<g opacity="0.5">
<path opacity="0.5" d="M254.158 4.44456C254.158 6.89897 252.135 8.88915 249.639 8.88915C247.144 8.88915 245.121 6.89897 245.121 4.44456C245.121 1.99016 247.144 0 249.639 0C252.135 0 254.158 1.99016 254.158 4.44456Z" fill="#E2B544"/>
<path opacity="0.5" d="M279.013 4.44456C279.013 6.89897 276.99 8.88915 274.495 8.88915C271.999 8.88915 269.976 6.89897 269.976 4.44456C269.976 1.99016 271.999 0 274.495 0C276.99 0 279.013 1.99016 279.013 4.44456Z" fill="#E2B544"/>
<path opacity="0.5" d="M303.873 4.44456C303.873 6.89897 301.85 8.88915 299.355 8.88915C296.859 8.88915 294.836 6.89897 294.836 4.44456C294.836 1.99016 296.859 0 299.355 0C301.85 0 303.873 1.99016 303.873 4.44456Z" fill="#E2B544"/>
<path opacity="0.5" d="M328.733 4.44456C328.733 6.89897 326.71 8.88915 324.214 8.88915C321.719 8.88915 319.696 6.89897 319.696 4.44456C319.696 1.99016 321.719 0 324.214 0C326.71 0 328.733 1.99016 328.733 4.44456Z" fill="#E2B544"/>
<path opacity="0.5" d="M353.593 4.44456C353.593 6.89897 351.57 8.88915 349.074 8.88915C346.579 8.88915 344.556 6.89897 344.556 4.44456C344.556 1.99016 346.579 0 349.074 0C351.57 0 353.593 1.99016 353.593 4.44456Z" fill="#E2B544"/>
</g>
<g opacity="0.5">
<path opacity="0.5" d="M254.158 20.0095C254.158 22.4639 252.135 24.4541 249.639 24.4541C247.144 24.4541 245.121 22.4639 245.121 20.0095C245.121 17.555 247.144 15.5648 249.639 15.5648C252.135 15.5648 254.158 17.555 254.158 20.0095Z" fill="#E2B544"/>
<path opacity="0.5" d="M279.013 20.0095C279.013 22.4639 276.99 24.4541 274.495 24.4541C271.999 24.4541 269.976 22.4639 269.976 20.0095C269.976 17.555 271.999 15.5648 274.495 15.5648C276.99 15.5648 279.013 17.555 279.013 20.0095Z" fill="#E2B544"/>
<path opacity="0.5" d="M303.873 20.0095C303.873 22.4639 301.85 24.4541 299.355 24.4541C296.859 24.4541 294.836 22.4639 294.836 20.0095C294.836 17.555 296.859 15.5648 299.355 15.5648C301.85 15.5648 303.873 17.555 303.873 20.0095Z" fill="#E2B544"/>
<path opacity="0.5" d="M328.733 20.0095C328.733 22.4639 326.71 24.4541 324.214 24.4541C321.719 24.4541 319.696 22.4639 319.696 20.0095C319.696 17.555 321.719 15.5648 324.214 15.5648C326.71 15.5648 328.733 17.555 328.733 20.0095Z" fill="#E2B544"/>
<path opacity="0.5" d="M353.593 20.0095C353.593 22.4639 351.57 24.4541 349.074 24.4541C346.579 24.4541 344.556 22.4639 344.556 20.0095C344.556 17.555 346.579 15.5648 349.074 15.5648C351.57 15.5648 353.593 17.555 353.593 20.0095Z" fill="#E2B544"/>
</g>
<g opacity="0.5">
<path opacity="0.5" d="M254.158 35.5699C254.158 38.0243 252.135 40.0145 249.639 40.0145C247.144 40.0145 245.121 38.0243 245.121 35.5699C245.121 33.1155 247.144 31.1252 249.639 31.1252C252.135 31.1252 254.158 33.1155 254.158 35.5699Z" fill="#E2B544"/>
<path opacity="0.5" d="M279.013 35.5699C279.013 38.0243 276.99 40.0145 274.495 40.0145C271.999 40.0145 269.976 38.0243 269.976 35.5699C269.976 33.1155 271.999 31.1252 274.495 31.1252C276.99 31.1252 279.013 33.1155 279.013 35.5699Z" fill="#E2B544"/>
<path opacity="0.5" d="M303.873 35.5699C303.873 38.0243 301.85 40.0145 299.355 40.0145C296.859 40.0145 294.836 38.0243 294.836 35.5699C294.836 33.1155 296.859 31.1252 299.355 31.1252C301.85 31.1252 303.873 33.1155 303.873 35.5699Z" fill="#E2B544"/>
<path opacity="0.5" d="M328.733 35.5699C328.733 38.0243 326.71 40.0145 324.214 40.0145C321.719 40.0145 319.696 38.0243 319.696 35.5699C319.696 33.1155 321.719 31.1252 324.214 31.1252C326.71 31.1252 328.733 33.1155 328.733 35.5699Z" fill="#E2B544"/>
<path opacity="0.5" d="M353.593 35.5699C353.593 38.0243 351.57 40.0145 349.074 40.0145C346.579 40.0145 344.556 38.0243 344.556 35.5699C344.556 33.1155 346.579 31.1252 349.074 31.1252C351.57 31.1252 353.593 33.1155 353.593 35.5699Z" fill="#E2B544"/>
</g>
<g opacity="0.5">
<path opacity="0.5" d="M254.158 51.1304C254.158 53.5848 252.135 55.575 249.639 55.575C247.144 55.575 245.121 53.5848 245.121 51.1304C245.121 48.676 247.144 46.6858 249.639 46.6858C252.135 46.6858 254.158 48.676 254.158 51.1304Z" fill="#E2B544"/>
<path opacity="0.5" d="M279.013 51.1304C279.013 53.5848 276.99 55.575 274.495 55.575C271.999 55.575 269.976 53.5848 269.976 51.1304C269.976 48.676 271.999 46.6858 274.495 46.6858C276.99 46.6858 279.013 48.676 279.013 51.1304Z" fill="#E2B544"/>
<path opacity="0.5" d="M303.873 51.1304C303.873 53.5848 301.85 55.575 299.355 55.575C296.859 55.575 294.836 53.5848 294.836 51.1304C294.836 48.676 296.859 46.6858 299.355 46.6858C301.85 46.6858 303.873 48.676 303.873 51.1304Z" fill="#E2B544"/>
<path opacity="0.5" d="M328.733 51.1304C328.733 53.5848 326.71 55.575 324.214 55.575C321.719 55.575 319.696 53.5848 319.696 51.1304C319.696 48.676 321.719 46.6858 324.214 46.6858C326.71 46.6858 328.733 48.676 328.733 51.1304Z" fill="#E2B544"/>
<path opacity="0.5" d="M353.593 51.1304C353.593 53.5848 351.57 55.575 349.074 55.575C346.579 55.575 344.556 53.5848 344.556 51.1304C344.556 48.676 346.579 46.6858 349.074 46.6858C351.57 46.6858 353.593 48.676 353.593 51.1304Z" fill="#E2B544"/>
</g>
<g opacity="0.5">
<path opacity="0.5" d="M376.561 4.44456C376.561 6.89897 374.537 8.88915 372.042 8.88915C369.547 8.88915 367.524 6.89897 367.524 4.44456C367.524 1.99016 369.547 0 372.042 0C374.537 0 376.561 1.99016 376.561 4.44456Z" fill="#E2B544"/>
<path opacity="0.5" d="M401.42 4.44456C401.42 6.89897 399.397 8.88915 396.902 8.88915C394.407 8.88915 392.384 6.89897 392.384 4.44456C392.384 1.99016 394.407 0 396.902 0C399.397 0 401.42 1.99016 401.42 4.44456Z" fill="#E2B544"/>
<path opacity="0.5" d="M426.28 4.44456C426.28 6.89897 424.257 8.88915 421.762 8.88915C419.267 8.88915 417.244 6.89897 417.244 4.44456C417.244 1.99016 419.267 0 421.762 0C424.257 0 426.28 1.99016 426.28 4.44456Z" fill="#E2B544"/>
<path opacity="0.5" d="M451.14 4.44456C451.14 6.89897 449.117 8.88915 446.622 8.88915C444.127 8.88915 442.104 6.89897 442.104 4.44456C442.104 1.99016 444.127 0 446.622 0C449.117 0 451.14 1.99016 451.14 4.44456Z" fill="#E2B544"/>
<path opacity="0.5" d="M476 4.44456C476 6.89897 473.977 8.88915 471.482 8.88915C468.987 8.88915 466.963 6.89897 466.963 4.44456C466.963 1.99016 468.987 0 471.482 0C473.977 0 476 1.99016 476 4.44456Z" fill="#E2B544"/>
</g>
<g opacity="0.5">
<path opacity="0.5" d="M376.561 20.0095C376.561 22.4639 374.537 24.4541 372.042 24.4541C369.547 24.4541 367.524 22.4639 367.524 20.0095C367.524 17.555 369.547 15.5648 372.042 15.5648C374.537 15.5648 376.561 17.555 376.561 20.0095Z" fill="#E2B544"/>
<path opacity="0.5" d="M401.42 20.0095C401.42 22.4639 399.397 24.4541 396.902 24.4541C394.407 24.4541 392.384 22.4639 392.384 20.0095C392.384 17.555 394.407 15.5648 396.902 15.5648C399.397 15.5648 401.42 17.555 401.42 20.0095Z" fill="#E2B544"/>
<path opacity="0.5" d="M426.28 20.0095C426.28 22.4639 424.257 24.4541 421.762 24.4541C419.267 24.4541 417.244 22.4639 417.244 20.0095C417.244 17.555 419.267 15.5648 421.762 15.5648C424.257 15.5648 426.28 17.555 426.28 20.0095Z" fill="#E2B544"/>
<path opacity="0.5" d="M451.14 20.0095C451.14 22.4639 449.117 24.4541 446.622 24.4541C444.127 24.4541 442.104 22.4639 442.104 20.0095C442.104 17.555 444.127 15.5648 446.622 15.5648C449.117 15.5648 451.14 17.555 451.14 20.0095Z" fill="#E2B544"/>
<path opacity="0.5" d="M476 20.0095C476 22.4639 473.977 24.4541 471.482 24.4541C468.987 24.4541 466.963 22.4639 466.963 20.0095C466.963 17.555 468.987 15.5648 471.482 15.5648C473.977 15.5648 476 17.555 476 20.0095Z" fill="#E2B544"/>
</g>
<g opacity="0.5">
<path opacity="0.5" d="M376.561 35.5699C376.561 38.0243 374.537 40.0145 372.042 40.0145C369.547 40.0145 367.524 38.0243 367.524 35.5699C367.524 33.1155 369.547 31.1252 372.042 31.1252C374.537 31.1252 376.561 33.1155 376.561 35.5699Z" fill="#E2B544"/>
<path opacity="0.5" d="M401.42 35.5699C401.42 38.0243 399.397 40.0145 396.902 40.0145C394.407 40.0145 392.384 38.0243 392.384 35.5699C392.384 33.1155 394.407 31.1252 396.902 31.1252C399.397 31.1252 401.42 33.1155 401.42 35.5699Z" fill="#E2B544"/>
<path opacity="0.5" d="M426.28 35.5699C426.28 38.0243 424.257 40.0145 421.762 40.0145C419.267 40.0145 417.244 38.0243 417.244 35.5699C417.244 33.1155 419.267 31.1252 421.762 31.1252C424.257 31.1252 426.28 33.1155 426.28 35.5699Z" fill="#E2B544"/>
<path opacity="0.5" d="M451.14 35.5699C451.14 38.0243 449.117 40.0145 446.622 40.0145C444.127 40.0145 442.104 38.0243 442.104 35.5699C442.104 33.1155 444.127 31.1252 446.622 31.1252C449.117 31.1252 451.14 33.1155 451.14 35.5699Z" fill="#E2B544"/>
<path opacity="0.5" d="M476 35.5699C476 38.0243 473.977 40.0145 471.482 40.0145C468.987 40.0145 466.963 38.0243 466.963 35.5699C466.963 33.1155 468.987 31.1252 471.482 31.1252C473.977 31.1252 476 33.1155 476 35.5699Z" fill="#E2B544"/>
</g>
<g opacity="0.5">
<path opacity="0.5" d="M376.561 51.1304C376.561 53.5848 374.537 55.575 372.042 55.575C369.547 55.575 367.524 53.5848 367.524 51.1304C367.524 48.676 369.547 46.6858 372.042 46.6858C374.537 46.6858 376.561 48.676 376.561 51.1304Z" fill="#E2B544"/>
<path opacity="0.5" d="M401.42 51.1304C401.42 53.5848 399.397 55.575 396.902 55.575C394.407 55.575 392.384 53.5848 392.384 51.1304C392.384 48.676 394.407 46.6858 396.902 46.6858C399.397 46.6858 401.42 48.676 401.42 51.1304Z" fill="#E2B544"/>
<path opacity="0.5" d="M426.28 51.1304C426.28 53.5848 424.257 55.575 421.762 55.575C419.267 55.575 417.244 53.5848 417.244 51.1304C417.244 48.676 419.267 46.6858 421.762 46.6858C424.257 46.6858 426.28 48.676 426.28 51.1304Z" fill="#E2B544"/>
<path opacity="0.5" d="M451.14 51.1304C451.14 53.5848 449.117 55.575 446.622 55.575C444.127 55.575 442.104 53.5848 442.104 51.1304C442.104 48.676 444.127 46.6858 446.622 46.6858C449.117 46.6858 451.14 48.676 451.14 51.1304Z" fill="#E2B544"/>
<path opacity="0.5" d="M476 51.1304C476 53.5848 473.977 55.575 471.482 55.575C468.987 55.575 466.963 53.5848 466.963 51.1304C466.963 48.676 468.987 46.6858 471.482 46.6858C473.977 46.6858 476 48.676 476 51.1304Z" fill="#E2B544"/>
</g>
</svg>
