<svg width="84" height="42" viewBox="0 0 84 42" fill="none" xmlns="http://www.w3.org/2000/svg">
<path opacity="0.5" d="M30.3777 21.0226H18.1946L18.3282 20.8762L0.0374146 0.66272H12.2206L30.5113 20.8762L30.3777 21.0226Z" fill="#EEBD2C"/>
<path d="M30.3777 21.0226L11.9534 41.3825H0.235115L0 41.1251L18.1892 21.0226H30.3724H30.3777Z" fill="#EEBD2C"/>
<path opacity="0.5" d="M45.0242 20.8762L26.7335 0.66272H38.9166L57.2073 20.8762L57.0737 21.0226H44.8906L45.0242 20.8762Z" fill="#EEBD2C"/>
<path d="M57.0737 21.0226L38.6494 41.3825H26.9312L26.696 41.1251L44.8906 21.0226H57.0737V21.0226Z" fill="#F4BC33"/>
<path opacity="0.5" d="M71.7149 20.8762L53.4242 0.66272H65.6073L83.8981 20.8762L83.7645 21.0226H71.5813L71.7149 20.8762Z" fill="#F4BC33"/>
<path d="M83.7645 21.0226L65.3402 41.3825H53.6219L53.3868 41.1251L71.576 21.0226H83.7591H83.7645Z" fill="#F4BC33"/>
</svg>
