<svg width="731" height="239" viewBox="0 0 731 239" fill="none" xmlns="http://www.w3.org/2000/svg">
<path opacity="0.5" d="M472.378 105.058H460.195L460.328 104.914L442.037 85H454.221L472.511 104.914L472.378 105.058Z" fill="#EEBD2C"/>
<path d="M472.378 105.058L453.953 125.117H442.235L442 124.863L460.189 105.058H472.372H472.378Z" fill="#EEBD2C"/>
<path opacity="0.5" d="M487.024 104.914L468.733 85H480.917L499.207 104.914L499.074 105.058H486.891L487.024 104.914Z" fill="#EEBD2C"/>
<path d="M499.074 105.058L480.649 125.117H468.931L468.696 124.863L486.891 105.058H499.074V105.058Z" fill="#F4BC33"/>
<path opacity="0.5" d="M513.715 104.914L495.424 85H507.607L525.898 104.914L525.764 105.058H513.581L513.715 104.914Z" fill="#F4BC33"/>
<path d="M525.764 105.058L507.34 125.117H495.622L495.387 124.863L513.576 105.058H525.759H525.764Z" fill="#F4BC33"/>
<path opacity="0.5" d="M253.936 233.201L258.713 228H261.892L257.115 233.201L257.147 233.241H253.968L253.936 233.201V233.201Z" fill="#EEBD2C"/>
<path d="M257.153 233.241L261.903 238.412L261.844 238.477H258.788L253.979 233.241H257.158H257.153Z" fill="#EEBD2C"/>
<path opacity="0.5" d="M250.185 233.241H247.005L246.973 233.201L251.75 228H254.93L250.153 233.201L250.185 233.241Z" fill="#EEBD2C"/>
<path d="M250.185 233.241L254.935 238.412L254.876 238.477H251.82L247.011 233.241H250.19H250.185Z" fill="#EEBD2C"/>
<path opacity="0.5" d="M243.211 233.241H240.032L240 233.201L244.777 228H247.956L243.179 233.201L243.217 233.241H243.211Z" fill="#EEBD2C"/>
<path d="M243.211 233.241L247.962 238.412L247.903 238.477H244.847L240.037 233.241H243.217H243.211Z" fill="#EEBD2C"/>
<path d="M666.725 167.273C666.725 167.974 666.116 168.546 665.363 168.546C664.609 168.546 664 167.979 664 167.273C664 166.572 664.609 166 665.363 166C666.116 166 666.725 166.567 666.725 167.273Z" fill="white"/>
<path d="M682.558 167.273C682.558 167.974 681.949 168.546 681.195 168.546C680.442 168.546 679.833 167.979 679.833 167.273C679.833 166.572 680.442 166 681.195 166C681.949 166 682.558 166.567 682.558 167.273Z" fill="white"/>
<path d="M698.396 167.273C698.396 167.974 697.787 168.546 697.033 168.546C696.28 168.546 695.671 167.979 695.671 167.273C695.671 166.572 696.28 166 697.033 166C697.787 166 698.396 166.567 698.396 167.273Z" fill="white"/>
<path d="M714.229 167.273C714.229 167.974 713.62 168.546 712.866 168.546C712.113 168.546 711.504 167.979 711.504 167.273C711.504 166.572 712.113 166 712.866 166C713.62 166 714.229 166.567 714.229 167.273Z" fill="white"/>
<path d="M730.062 167.273C730.062 167.974 729.452 168.546 728.699 168.546C727.946 168.546 727.336 167.979 727.336 167.273C727.336 166.572 727.946 166 728.699 166C729.452 166 730.062 166.567 730.062 167.273Z" fill="white"/>
<path d="M666.725 180.828C666.725 181.529 666.116 182.101 665.363 182.101C664.609 182.101 664 181.534 664 180.828C664 180.127 664.609 179.555 665.363 179.555C666.116 179.555 666.725 180.122 666.725 180.828Z" fill="white"/>
<path d="M682.558 180.828C682.558 181.529 681.949 182.101 681.195 182.101C680.442 182.101 679.833 181.534 679.833 180.828C679.833 180.127 680.442 179.555 681.195 179.555C681.949 179.555 682.558 180.122 682.558 180.828Z" fill="white"/>
<path d="M698.396 180.828C698.396 181.529 697.787 182.101 697.033 182.101C696.28 182.101 695.671 181.534 695.671 180.828C695.671 180.127 696.28 179.555 697.033 179.555C697.787 179.555 698.396 180.122 698.396 180.828Z" fill="white"/>
<path d="M714.229 180.828C714.229 181.529 713.62 182.101 712.866 182.101C712.113 182.101 711.504 181.534 711.504 180.828C711.504 180.127 712.113 179.555 712.866 179.555C713.62 179.555 714.229 180.122 714.229 180.828Z" fill="white"/>
<path d="M730.062 180.828C730.062 181.529 729.452 182.101 728.699 182.101C727.946 182.101 727.336 181.534 727.336 180.828C727.336 180.127 727.946 179.555 728.699 179.555C729.452 179.555 730.062 180.122 730.062 180.828Z" fill="white"/>
<path d="M666.725 194.377C666.725 195.078 666.116 195.65 665.363 195.65C664.609 195.65 664 195.083 664 194.377C664 193.676 664.609 193.104 665.363 193.104C666.116 193.104 666.725 193.671 666.725 194.377Z" fill="white"/>
<path d="M682.558 194.377C682.558 195.078 681.949 195.65 681.195 195.65C680.442 195.65 679.833 195.083 679.833 194.377C679.833 193.676 680.442 193.104 681.195 193.104C681.949 193.104 682.558 193.671 682.558 194.377Z" fill="white"/>
<path d="M698.396 194.377C698.396 195.078 697.787 195.65 697.033 195.65C696.28 195.65 695.671 195.083 695.671 194.377C695.671 193.676 696.28 193.104 697.033 193.104C697.787 193.104 698.396 193.671 698.396 194.377Z" fill="white"/>
<path d="M714.229 194.377C714.229 195.078 713.62 195.65 712.866 195.65C712.113 195.65 711.504 195.083 711.504 194.377C711.504 193.676 712.113 193.104 712.866 193.104C713.62 193.104 714.229 193.671 714.229 194.377Z" fill="white"/>
<path d="M730.062 194.377C730.062 195.078 729.452 195.65 728.699 195.65C727.946 195.65 727.336 195.083 727.336 194.377C727.336 193.676 727.946 193.104 728.699 193.104C729.452 193.104 730.062 193.671 730.062 194.377Z" fill="white"/>
<path d="M666.725 207.932C666.725 208.633 666.116 209.205 665.363 209.205C664.609 209.205 664 208.638 664 207.932C664 207.231 664.609 206.659 665.363 206.659C666.116 206.659 666.725 207.226 666.725 207.932Z" fill="white"/>
<path d="M682.558 207.932C682.558 208.633 681.949 209.205 681.195 209.205C680.442 209.205 679.833 208.638 679.833 207.932C679.833 207.231 680.442 206.659 681.195 206.659C681.949 206.659 682.558 207.226 682.558 207.932Z" fill="white"/>
<path d="M698.396 207.932C698.396 208.633 697.787 209.205 697.033 209.205C696.28 209.205 695.671 208.638 695.671 207.932C695.671 207.231 696.28 206.659 697.033 206.659C697.787 206.659 698.396 207.226 698.396 207.932Z" fill="white"/>
<path d="M714.229 207.932C714.229 208.633 713.62 209.205 712.866 209.205C712.113 209.205 711.504 208.638 711.504 207.932C711.504 207.231 712.113 206.659 712.866 206.659C713.62 206.659 714.229 207.226 714.229 207.932Z" fill="white"/>
<path d="M730.062 207.932C730.062 208.633 729.452 209.205 728.699 209.205C727.946 209.205 727.336 208.638 727.336 207.932C727.336 207.231 727.946 206.659 728.699 206.659C729.452 206.659 730.062 207.226 730.062 207.932Z" fill="white"/>
<path d="M666.725 221.487C666.725 222.188 666.116 222.759 665.363 222.759C664.609 222.759 664 222.193 664 221.487C664 220.785 664.609 220.214 665.363 220.214C666.116 220.214 666.725 220.78 666.725 221.487Z" fill="white"/>
<path d="M682.558 221.487C682.558 222.188 681.949 222.759 681.195 222.759C680.442 222.759 679.833 222.193 679.833 221.487C679.833 220.785 680.442 220.214 681.195 220.214C681.949 220.214 682.558 220.78 682.558 221.487Z" fill="white"/>
<path d="M698.396 221.487C698.396 222.188 697.787 222.759 697.033 222.759C696.28 222.759 695.671 222.193 695.671 221.487C695.671 220.785 696.28 220.214 697.033 220.214C697.787 220.214 698.396 220.78 698.396 221.487Z" fill="white"/>
<path d="M714.229 221.487C714.229 222.188 713.62 222.759 712.866 222.759C712.113 222.759 711.504 222.193 711.504 221.487C711.504 220.785 712.113 220.214 712.866 220.214C713.62 220.214 714.229 220.78 714.229 221.487Z" fill="white"/>
<path d="M730.062 221.487C730.062 222.188 729.452 222.759 728.699 222.759C727.946 222.759 727.336 222.193 727.336 221.487C727.336 220.785 727.946 220.214 728.699 220.214C729.452 220.214 730.062 220.78 730.062 221.487Z" fill="white"/>
<path d="M666.725 235.041C666.725 235.742 666.116 236.314 665.363 236.314C664.609 236.314 664 235.747 664 235.041C664 234.34 664.609 233.768 665.363 233.768C666.116 233.768 666.725 234.335 666.725 235.041Z" fill="white"/>
<path d="M682.558 235.041C682.558 235.742 681.949 236.314 681.195 236.314C680.442 236.314 679.833 235.747 679.833 235.041C679.833 234.34 680.442 233.768 681.195 233.768C681.949 233.768 682.558 234.335 682.558 235.041Z" fill="white"/>
<path d="M698.396 235.041C698.396 235.742 697.787 236.314 697.033 236.314C696.28 236.314 695.671 235.747 695.671 235.041C695.671 234.34 696.28 233.768 697.033 233.768C697.787 233.768 698.396 234.335 698.396 235.041Z" fill="white"/>
<path d="M714.229 235.041C714.229 235.742 713.62 236.314 712.866 236.314C712.113 236.314 711.504 235.747 711.504 235.041C711.504 234.34 712.113 233.768 712.866 233.768C713.62 233.768 714.229 234.335 714.229 235.041Z" fill="white"/>
<path d="M730.062 235.041C730.062 235.742 729.452 236.314 728.699 236.314C727.946 236.314 727.336 235.747 727.336 235.041C727.336 234.34 727.946 233.768 728.699 233.768C729.452 233.768 730.062 234.335 730.062 235.041Z" fill="white"/>
<g opacity="0.5">
<g opacity="0.5">
<g opacity="0.5">
<g opacity="0.5">
<path opacity="0.5" d="M31.1151 0.0314795L11.6648 38.1443L0 38.1233L19.4556 0L31.1098 0.0209837L31.1151 0.0314795V0.0314795Z" fill="#151514"/>
<path opacity="0.5" d="M55.2463 0.0840918L35.796 38.1969L24.1312 38.1759L43.5868 0.0526123L55.2409 0.073596L55.2463 0.0840918V0.0840918Z" fill="#151514"/>
<path opacity="0.5" d="M79.3775 0.136338L59.9272 38.2491L48.2624 38.2281L67.718 0.104858L79.3721 0.12585L79.3775 0.136338V0.136338Z" fill="#151514"/>
<path opacity="0.5" d="M103.509 0.189194L84.0584 38.302L72.3935 38.281L91.8492 0.157715L103.503 0.178699L103.509 0.189194V0.189194Z" fill="#151514"/>
<path opacity="0.5" d="M127.64 0.241693L108.19 38.3545L96.5247 38.3335L115.98 0.210205L127.634 0.231197L127.64 0.241693V0.241693Z" fill="#151514"/>
<path opacity="0.5" d="M151.771 0.304793L132.321 38.4176L120.656 38.3861L140.112 0.262817L151.766 0.283801L151.771 0.294297V0.304793Z" fill="#151514"/>
<path opacity="0.5" d="M175.897 0.356543L156.447 38.4693L144.782 38.4378L164.237 0.314575L175.891 0.335559L175.897 0.346055V0.356543Z" fill="#151514"/>
<path opacity="0.5" d="M200.028 0.409165L180.578 38.5219L168.913 38.501L188.369 0.377686L200.023 0.398669L200.028 0.409165V0.409165Z" fill="#151514"/>
<path opacity="0.5" d="M224.159 0.461663L204.709 38.5744L193.044 38.5535L212.5 0.430176L224.154 0.451167L224.159 0.461663Z" fill="#151514"/>
<path opacity="0.5" d="M248.29 0.514268L228.84 38.627L217.175 38.6061L236.631 0.482788L248.285 0.50378L248.29 0.514268V0.514268Z" fill="#151514"/>
<path opacity="0.5" d="M272.422 0.566758L252.971 38.6795L241.306 38.6585L260.762 0.535278L272.416 0.556262L272.422 0.566758V0.566758Z" fill="#151514"/>
<path opacity="0.5" d="M296.553 0.61937L277.102 38.7322L265.438 38.7112L284.893 0.587891L296.547 0.608882L296.553 0.61937V0.61937Z" fill="#151514"/>
<path opacity="0.5" d="M320.684 0.682236L301.234 38.795L289.569 38.774L309.024 0.650757L320.679 0.671741L320.684 0.682236V0.682236Z" fill="#151514"/>
<path opacity="0.5" d="M344.815 0.734727L325.365 38.8475L313.7 38.8265L333.156 0.703247L344.81 0.724239L344.815 0.734727V0.734727Z" fill="#151514"/>
<path opacity="0.5" d="M368.946 0.786851L349.496 38.8996L337.831 38.8786L357.287 0.755371L368.941 0.776355L368.946 0.786851V0.786851Z" fill="#151514"/>
<path opacity="0.5" d="M393.077 0.839837L373.627 38.9526L361.962 38.9316L381.418 0.80835L393.072 0.829341L393.077 0.839837V0.839837Z" fill="#151514"/>
<path opacity="0.5" d="M417.209 0.891953L397.758 39.0047L386.093 38.9838L405.549 0.860474L417.203 0.891953L417.209 0.902449V0.891953Z" fill="#151514"/>
<path opacity="0.5" d="M441.334 0.944443L421.884 39.0572L410.219 39.0362L429.675 0.912964L441.329 0.933948L441.334 0.944443V0.944443Z" fill="#151514"/>
<path opacity="0.5" d="M465.466 1.00755L446.015 39.1203L434.35 39.0994L453.806 0.976074L465.46 0.997058L465.466 1.00755V1.00755Z" fill="#151514"/>
<path opacity="0.5" d="M489.597 1.05992L470.147 39.1727L458.482 39.1517L477.937 1.02844L489.591 1.04943L489.597 1.05992V1.05992Z" fill="#151514"/>
<path opacity="0.5" d="M513.728 1.11241L494.278 39.2252L482.613 39.2042L502.069 1.08093L513.723 1.11241L513.728 1.12291V1.11241Z" fill="#151514"/>
</g>
</g>
<g opacity="0.8">
<path opacity="0.8" d="M20.4655 20.8928L11.6648 38.1443L0 38.1233L8.80072 20.8718L20.4655 20.8928V20.8928Z" fill="#151514"/>
<path opacity="0.8" d="M44.5967 20.9453L35.796 38.1968L24.1312 38.1758L32.9319 20.9243L44.5967 20.9453Z" fill="#151514"/>
<path opacity="0.8" d="M68.7279 20.9976L59.9272 38.249L48.2624 38.2281L57.0631 20.9766L68.7279 20.9976Z" fill="#151514"/>
<path opacity="0.8" d="M92.8591 21.0504L84.0584 38.3019L72.3935 38.2809L81.1943 21.0294L92.8591 21.0504Z" fill="#151514"/>
<path opacity="0.8" d="M116.99 21.1135L108.19 38.365L96.5247 38.344L105.325 21.0925L116.99 21.1135V21.1135Z" fill="#151514"/>
<path opacity="0.8" d="M141.121 21.1659L132.321 38.4174L120.656 38.3859L129.457 21.1449L141.121 21.1659V21.1659Z" fill="#151514"/>
<path opacity="0.8" d="M165.253 21.218L156.452 38.4695L144.787 38.438L153.588 21.1865L165.253 21.2075V21.218Z" fill="#151514"/>
<path opacity="0.8" d="M189.384 21.2704L180.583 38.5219L168.918 38.5009L177.719 21.2494L189.384 21.2704Z" fill="#151514"/>
<path opacity="0.8" d="M213.515 21.323L204.714 38.5745L193.049 38.5535L201.85 21.302L213.515 21.323Z" fill="#151514"/>
<path opacity="0.8" d="M237.646 21.3755L228.845 38.627L217.181 38.606L225.981 21.3545L237.646 21.3755V21.3755Z" fill="#151514"/>
<path opacity="0.8" d="M261.777 21.4281L252.977 38.6796L241.312 38.6586L250.112 21.4071L261.777 21.4281Z" fill="#151514"/>
<path opacity="0.8" d="M285.903 21.4912L277.102 38.7427L265.438 38.7217L274.238 21.4702L285.903 21.4912V21.4912Z" fill="#151514"/>
<path opacity="0.8" d="M310.034 21.5434L301.234 38.7949L289.569 38.7739L298.37 21.5225L310.034 21.5434V21.5434Z" fill="#151514"/>
<path opacity="0.8" d="M334.166 21.5961L325.365 38.8476L313.7 38.8266L322.501 21.5751L334.166 21.5961Z" fill="#151514"/>
<path opacity="0.8" d="M358.297 21.6481L349.496 38.8996L337.831 38.8786L346.632 21.6271L358.297 21.6481Z" fill="#151514"/>
<path opacity="0.8" d="M382.428 21.7012L373.627 38.9527L361.962 38.9317L370.763 21.6802L382.428 21.7012V21.7012Z" fill="#151514"/>
<path opacity="0.8" d="M406.559 21.7532L397.758 39.0047L386.093 38.9837L394.894 21.7322L406.559 21.7532Z" fill="#151514"/>
<path opacity="0.8" d="M430.69 21.8163L421.89 39.0678L410.225 39.0468L419.025 21.7953L430.69 21.8163Z" fill="#151514"/>
<path opacity="0.8" d="M454.821 21.8689L446.021 39.1204L434.356 39.0994L443.157 21.8479L454.821 21.8689Z" fill="#151514"/>
<path opacity="0.8" d="M478.953 21.9211L470.152 39.1726L458.487 39.1516L467.288 21.9001L478.953 21.9211Z" fill="#151514"/>
<path opacity="0.8" d="M503.084 21.9738L494.283 39.2252L482.618 39.2043L491.419 21.9528L503.084 21.9738Z" fill="#151514"/>
</g>
</g>
</g>
<path d="M14.7625 235.698H5V228.553L14.7625 216.068L5 203.582V196.437H14.7625L30.1144 216.068L14.7625 235.693V235.698Z" fill="#D5D6D4"/>
<path d="M54.502 216.073L39.1502 235.699H23.8785L23.8358 235.649L39.1449 216.073L23.8358 196.491L23.8785 196.442H39.1502L54.502 216.073V216.073Z" fill="#D5D6D4"/>
<path d="M78.8897 216.073L63.5379 235.699H48.2662L48.2288 235.649L63.5379 216.073L48.2288 196.491L48.2662 196.442H63.5379L78.8897 216.073V216.073Z" fill="#D5D6D4"/>
<path d="M103.272 216.073L87.9202 235.699H72.6485L72.6111 235.649L87.9255 216.073L72.6111 196.491L72.6485 196.442H87.9202L103.272 216.073V216.073Z" fill="#D5D6D4"/>
<path d="M127.66 216.073L112.308 235.699H97.0362L96.9988 235.649L112.308 216.073L96.9988 196.491L97.0362 196.442H112.308L127.66 216.073V216.073Z" fill="#D5D6D4"/>
<path d="M152.042 216.073L136.69 235.699H121.419L121.376 235.649L136.69 216.073L121.376 196.491L121.419 196.442H136.69L152.042 216.073V216.073Z" fill="#D5D6D4"/>
<path d="M176.43 216.072L161.078 235.698H145.812L145.769 235.649L161.078 216.072L145.769 196.491L38.7869 60H54.0532L176.424 216.072H176.43Z" fill="#D5D6D4"/>
<path d="M547 168.35L674.795 1H713.455L624.619 118.8L585.858 168.35L624.619 217.909L624.518 218.039H585.858L547 168.35V168.35Z" fill="#F4BC33"/>
</svg>
