<svg width="1122" height="1000" fill="none" xmlns="http://www.w3.org/2000/svg"><path opacity=".6" d="M784.862 1027.43H254.601V-25.19H783.77c26.806 0 51.835 15.45 66.716 41.17l258.234 446.39c17.71 30.63 17.34 70.65-.93 100.83L850.625 987.87c-15.011 24.78-39.555 39.54-65.754 39.54l-.009.02Z" fill="url(#a)"/><path d="M607.924 1027.43H-6.959V-25.19H606.84c26.564 0 51.376 15.31 66.127 40.81l276.831 478.54c6.63 11.46 6.491 26.43-.347 37.73L673.097 988.24c-14.872 24.56-39.199 39.19-65.165 39.19h-.008Z" fill="url(#b)"/><defs><linearGradient id="a" x1="127.486" y1="-29.2" x2="1888.99" y2="-29.2" gradientUnits="userSpaceOnUse"><stop offset=".1" stop-color="#FF6544"/><stop offset=".4" stop-color="#FEB540"/></linearGradient><linearGradient id="b" x1="-148.373" y1="-29.2" x2="1812.03" y2="-29.2" gradientUnits="userSpaceOnUse"><stop offset=".1" stop-color="#DD7C0E"/><stop offset=".4" stop-color="#F4BC33"/></linearGradient></defs></svg>