<svg width="900" height="600" xmlns="http://www.w3.org/2000/svg"><path fill="#333" d="M0 0h900v600H0z"/><path d="m428 600-1.2-10c-1.1-10-3.5-30-5.3-50-1.8-20-3.2-40-2.5-60 .7-20 3.3-40 6-60s5.3-40 8.2-60c2.8-20 5.8-40 6.5-60 .6-20-1-40 1-60s7.6-40 11.1-60 4.9-40 5.2-60c.3-20-.3-40-5.8-60s-15.9-40-21-50L425 0h475v600Z" fill="#dd7c0e"/><path d="m503 600 2.2-10c2.1-10 6.5-30 11-50s9.1-40 6.3-60-13.2-40-14-60c-.8-20 7.8-40 12.5-60s5.3-40 1-60-13.7-40-14.3-60c-.7-20 7.3-40 11.5-60 4.1-20 4.5-40 3.3-60-1.2-20-3.8-40-3.7-60 .2-20 3.2-40 4.7-50L525 0h375v600Z" fill="#e28914"/><path d="m596 600-3.5-10c-3.5-10-10.5-30-11.3-50-.9-20 4.5-40 7.5-60s3.6-40 7.3-60c3.7-20 10.3-40 10.3-60s-6.6-40-7.8-60c-1.2-20 3.2-40 .5-60s-12.3-40-15.3-60 .6-40 2.8-60c2.2-20 2.8-40 4.3-60s3.9-40 5-50L597 0h303v600Z" fill="#e8961a"/><path d="m681 600-2.3-10c-2.4-10-7-30-11.7-50-4.7-20-9.3-40-8.5-60 .8-20 7.2-40 8-60 .8-20-3.8-40-7.8-60s-7.4-40-7.7-60c-.3-20 2.3-40 4-60 1.7-20 2.3-40 1-60-1.3-20-4.7-40-2.7-60s9.4-40 15.5-60c6.2-20 11.2-40 13.7-50L685 0h215v600Z" fill="#eca222"/><path d="m730 600 6-10c6-10 18-30 23.2-50 5.1-20 3.5-40-.9-60-4.3-20-11.3-40-12.8-60s2.5-40 6.3-60c3.9-20 7.5-40 3-60s-17.1-40-21.1-60 .6-40 5.8-60 10.8-40 13.8-60 3.4-40-.5-60C749 40 741 20 737 10l-4-10h167v600Z" fill="#f0af2a"/><path d="m817 600 4-10c4-10 12-30 13.2-50 1.1-20-4.5-40-9.5-60s-9.4-40-12.4-60-4.6-40-4.1-60 3.1-40 7.6-60 10.9-40 12.5-60c1.7-20-1.3-40-2.1-60-.9-20 .5-40 .3-60s-1.8-40-1.2-60c.7-20 3.7-40 5.2-50L832 0h68v600Z" fill="#f4bc33"/></svg>