<svg width="900" height="600" xmlns="http://www.w3.org/2000/svg"><path fill="#F4BC33" d="M0 0h900v600H0z"/><path d="M900 459.7c-53.2-41.7-106.4-83.4-139.3-123.4-32.9-40.1-45.4-78.5-97.6-99.4-52.2-21-144.1-24.4-187.8-61-43.8-36.5-39.4-106.2-35-175.9H900Z" fill="#e3af33"/><path d="M900 402.2c-46.6-36.4-93.1-72.9-121.9-107.9-28.7-35.1-39.7-68.7-85.4-87-45.6-18.3-126-21.4-164.3-53.4-38.3-32-34.5-92.9-30.6-153.9H900Z" fill="#c19531"/><path d="M900 344.8c-39.9-31.3-79.8-62.5-104.5-92.6-24.6-30-34-58.8-73.2-74.5-39.1-15.7-108-18.3-140.8-45.8-32.8-27.4-29.6-79.6-26.3-131.9H900Z" fill="#a07d2f"/><path d="M900 287.3c-33.3-26-66.5-52.1-87.1-77.1-20.5-25-28.3-49.1-61-62.1-32.6-13.1-90-15.3-117.3-38.1-27.4-22.9-24.7-66.5-21.9-110H900Z" fill="#80652c"/><path d="M900 229.9c-26.6-20.9-53.2-41.7-69.6-61.8-16.5-20-22.7-39.2-48.8-49.7-26.1-10.4-72.1-12.2-94-30.4-21.8-18.3-19.6-53.2-17.5-88H900Z" fill="#614e28"/><path d="M900 172.4c-20-15.6-39.9-31.3-52.2-46.3-12.4-15-17.1-29.4-36.6-37.3-19.6-7.8-54.1-9.1-70.5-22.8-16.4-13.7-14.7-39.9-13.1-66H900Z" fill="#443823"/><path d="M900 114.9c-13.3-10.4-26.6-20.8-34.8-30.8-8.2-10-11.4-19.6-24.4-24.9-13.1-5.2-36-6.1-47-15.2-10.9-9.2-9.8-26.6-8.7-44H900Z" fill="#28241d"/><path d="M900 57.5c-6.7-5.2-13.3-10.5-17.4-15.5-4.1-5-5.7-9.8-12.2-12.4-6.5-2.6-18-3-23.5-7.6S842 8.7 842.5 0H900Z" fill="#1a1a1a"/><path d="M0 140.3c64.3.3 128.6.7 175.9 35 47.4 34.3 77.8 102.6 90.7 158.1 12.8 55.6 8.1 98.4 37.4 140.7 29.2 42.3 92.5 84.1 155.7 125.9H0Z" fill="#e3af33"/><path d="M0 197.8c56.2.3 112.5.6 153.9 30.6 41.5 30 68.1 89.7 79.4 138.3 11.2 48.6 7.1 86.1 32.7 123.1 25.6 37.1 80.9 73.6 136.2 110.2H0Z" fill="#c19531"/><path d="M0 255.2c48.2.3 96.4.5 131.9 26.3 35.6 25.7 58.4 76.9 68 118.6 9.7 41.6 6.1 73.7 28.1 105.5 21.9 31.7 69.3 63.1 116.8 94.4H0Z" fill="#a07d2f"/><path d="M0 312.7c40.2.2 80.4.4 110 21.9 29.6 21.4 48.6 64.1 56.6 98.8s5.1 61.5 23.4 87.9c18.3 26.5 57.8 52.6 97.3 78.7H0Z" fill="#80652c"/><path d="M0 370.1c32.1.2 64.3.4 88 17.5 23.6 17.2 38.9 51.3 45.3 79.1 6.4 27.8 4 49.2 18.7 70.3 14.6 21.2 46.2 42.1 77.9 63H0Z" fill="#614e28"/><path d="M0 427.6c24.1.1 48.2.3 66 13.1 17.7 12.9 29.1 38.5 34 59.3 4.8 20.9 3 36.9 14 52.8 11 15.9 34.7 31.5 58.4 47.2H0Z" fill="#443823"/><path d="M0 485.1c16.1.1 32.1.1 44 8.7 11.8 8.6 19.4 25.7 22.6 39.6 3.3 13.8 2.1 24.5 9.4 35.1 7.3 10.6 23.1 21.1 38.9 31.5H0Z" fill="#28241d"/><path d="M0 542.5c8 .1 16.1.1 22 4.4 5.9 4.3 9.7 12.8 11.3 19.8 1.6 6.9 1 12.3 4.7 17.6 3.7 5.3 11.6 10.5 19.5 15.7H0Z" fill="#1a1a1a"/></svg>