<svg width="1300" height="1000" fill="none" xmlns="http://www.w3.org/2000/svg"><g clip-path="url(#a)"><path opacity=".6" d="M784.862 1027.43H254.601V-25.19H783.77c26.806 0 51.835 15.45 66.716 41.17l258.234 446.39c17.71 30.63 17.34 70.65-.93 100.83L850.625 987.87c-15.011 24.78-39.555 39.54-65.754 39.54l-.009.02Z" fill="url(#b)"/><path d="M607.924 1027.43H-6.959V-25.19H606.84c26.564 0 51.376 15.31 66.127 40.81l276.831 478.54c6.63 11.46 6.491 26.43-.347 37.73L673.097 988.24c-14.872 24.56-39.199 39.19-65.165 39.19h-.008Z" fill="url(#c)"/><path opacity=".7" d="M1454.95-38.3v519.6h-108.43c-25.11 0-48.75-13.7-63.74-36.95L967.544-44.42l487.406 6.11v.01Z" fill="url(#d)"/><path opacity=".7" d="M967.544 1042.67 1282.78 553.9c14.99-23.25 38.63-36.95 63.74-36.95h108.43v519.6l-487.406 6.11v.01Z" fill="url(#e)"/></g><defs><linearGradient id="b" x1="127.486" y1="-29.2" x2="1888.99" y2="-29.2" gradientUnits="userSpaceOnUse"><stop offset=".1" stop-color="#FF6544"/><stop offset=".4" stop-color="#FEB540"/></linearGradient><linearGradient id="c" x1="-148.373" y1="-29.2" x2="1812.03" y2="-29.2" gradientUnits="userSpaceOnUse"><stop offset=".1" stop-color="#DD7C0E"/><stop offset=".4" stop-color="#F4BC33"/></linearGradient><linearGradient id="d" x1="1244.53" y1="711" x2="2081.69" y2="41.021" gradientUnits="userSpaceOnUse"><stop offset=".1" stop-color="#F4BC33"/><stop offset=".3" stop-color="#FEB540" stop-opacity="0"/></linearGradient><linearGradient id="e" x1="1244.53" y1="287.3" x2="2081.69" y2="957.279" gradientUnits="userSpaceOnUse"><stop offset=".1" stop-color="#F4BC33"/><stop offset=".3" stop-color="#FEB540" stop-opacity="0"/></linearGradient><clipPath id="a"><path fill="#fff" d="M0 0h1300v1000H0z"/></clipPath></defs></svg>