<svg width="476" height="56" fill="none" xmlns="http://www.w3.org/2000/svg"><path opacity=".5" d="M9.037 4.445c0 2.454-2.023 4.444-4.519 4.444C2.023 8.89 0 6.9 0 4.445S2.023 0 4.518 0c2.496 0 4.519 1.99 4.519 4.445Zm24.86 0c0 2.454-2.024 4.444-4.519 4.444S24.86 6.9 24.86 4.445 26.883 0 29.378 0c2.495 0 4.519 1.99 4.519 4.445Zm24.859 0c0 2.454-2.023 4.444-4.518 4.444-2.495 0-4.518-1.99-4.518-4.444C49.72 1.99 51.743 0 54.238 0c2.495 0 4.518 1.99 4.518 4.445Zm24.86 0c0 2.454-2.023 4.444-4.518 4.444-2.495 0-4.518-1.99-4.518-4.444C74.58 1.99 76.603 0 79.098 0c2.495 0 4.518 1.99 4.518 4.445Zm24.86 0c0 2.454-2.023 4.444-4.518 4.444-2.495 0-4.518-1.99-4.518-4.444C99.44 1.99 101.463 0 103.958 0c2.495 0 4.518 1.99 4.518 4.445ZM9.037 20.01c0 2.454-2.023 4.444-4.519 4.444C2.023 24.454 0 22.464 0 20.01c0-2.454 2.023-4.444 4.518-4.444 2.496 0 4.519 1.99 4.519 4.444Zm24.86 0c0 2.454-2.024 4.444-4.519 4.444s-4.518-1.99-4.518-4.445c0-2.454 2.023-4.444 4.518-4.444 2.495 0 4.519 1.99 4.519 4.444Zm24.859 0c0 2.454-2.023 4.444-4.518 4.444-2.495 0-4.518-1.99-4.518-4.445 0-2.454 2.023-4.444 4.518-4.444 2.495 0 4.518 1.99 4.518 4.444Zm24.86 0c0 2.454-2.023 4.444-4.518 4.444-2.495 0-4.518-1.99-4.518-4.445 0-2.454 2.023-4.444 4.518-4.444 2.495 0 4.518 1.99 4.518 4.444Zm24.86 0c0 2.454-2.023 4.444-4.518 4.444-2.495 0-4.518-1.99-4.518-4.445 0-2.454 2.023-4.444 4.518-4.444 2.495 0 4.518 1.99 4.518 4.444ZM9.037 35.57c0 2.454-2.023 4.444-4.519 4.444C2.023 40.014 0 38.024 0 35.57c0-2.455 2.023-4.445 4.518-4.445 2.496 0 4.519 1.99 4.519 4.445Zm24.86 0c0 2.454-2.024 4.444-4.519 4.444s-4.518-1.99-4.518-4.444c0-2.455 2.023-4.445 4.518-4.445 2.495 0 4.519 1.99 4.519 4.445Zm24.859 0c0 2.454-2.023 4.444-4.518 4.444-2.495 0-4.518-1.99-4.518-4.444 0-2.455 2.023-4.445 4.518-4.445 2.495 0 4.518 1.99 4.518 4.445Zm24.86 0c0 2.454-2.023 4.444-4.518 4.444-2.495 0-4.518-1.99-4.518-4.444 0-2.455 2.023-4.445 4.518-4.445 2.495 0 4.518 1.99 4.518 4.445Zm24.86 0c0 2.454-2.023 4.444-4.518 4.444-2.495 0-4.518-1.99-4.518-4.444 0-2.455 2.023-4.445 4.518-4.445 2.495 0 4.518 1.99 4.518 4.445ZM9.037 51.13c0 2.455-2.023 4.445-4.519 4.445C2.023 55.575 0 53.585 0 51.13c0-2.454 2.023-4.444 4.518-4.444 2.496 0 4.519 1.99 4.519 4.444Zm24.86 0c0 2.455-2.024 4.445-4.519 4.445s-4.518-1.99-4.518-4.445c0-2.454 2.023-4.444 4.518-4.444 2.495 0 4.519 1.99 4.519 4.444Zm24.859 0c0 2.455-2.023 4.445-4.518 4.445-2.495 0-4.518-1.99-4.518-4.445 0-2.454 2.023-4.444 4.518-4.444 2.495 0 4.518 1.99 4.518 4.444Zm24.86 0c0 2.455-2.023 4.445-4.518 4.445-2.495 0-4.518-1.99-4.518-4.445 0-2.454 2.023-4.444 4.518-4.444 2.495 0 4.518 1.99 4.518 4.444Zm24.86 0c0 2.455-2.023 4.445-4.518 4.445-2.495 0-4.518-1.99-4.518-4.445 0-2.454 2.023-4.444 4.518-4.444 2.495 0 4.518 1.99 4.518 4.444ZM131.44 4.445c0 2.454-2.023 4.444-4.519 4.444-2.495 0-4.518-1.99-4.518-4.444 0-2.455 2.023-4.445 4.518-4.445 2.496 0 4.519 1.99 4.519 4.445Zm24.86 0c0 2.454-2.024 4.444-4.519 4.444s-4.518-1.99-4.518-4.444c0-2.455 2.023-4.445 4.518-4.445 2.495 0 4.519 1.99 4.519 4.445Zm24.86 0c0 2.454-2.024 4.444-4.519 4.444s-4.518-1.99-4.518-4.444c0-2.455 2.023-4.445 4.518-4.445 2.495 0 4.519 1.99 4.519 4.445Zm24.859 0c0 2.454-2.023 4.444-4.518 4.444-2.495 0-4.518-1.99-4.518-4.444 0-2.455 2.023-4.445 4.518-4.445 2.495 0 4.518 1.99 4.518 4.445Zm24.86 0c0 2.454-2.023 4.444-4.518 4.444-2.495 0-4.518-1.99-4.518-4.444 0-2.455 2.023-4.445 4.518-4.445 2.495 0 4.518 1.99 4.518 4.445ZM131.44 20.01c0 2.454-2.023 4.444-4.519 4.444-2.495 0-4.518-1.99-4.518-4.445 0-2.454 2.023-4.444 4.518-4.444 2.496 0 4.519 1.99 4.519 4.444Zm24.86 0c0 2.454-2.024 4.444-4.519 4.444s-4.518-1.99-4.518-4.445c0-2.454 2.023-4.444 4.518-4.444 2.495 0 4.519 1.99 4.519 4.444Zm24.86 0c0 2.454-2.024 4.444-4.519 4.444s-4.518-1.99-4.518-4.445c0-2.454 2.023-4.444 4.518-4.444 2.495 0 4.519 1.99 4.519 4.444Zm24.859 0c0 2.454-2.023 4.444-4.518 4.444-2.495 0-4.518-1.99-4.518-4.445 0-2.454 2.023-4.444 4.518-4.444 2.495 0 4.518 1.99 4.518 4.444Zm24.86 0c0 2.454-2.023 4.444-4.518 4.444-2.495 0-4.518-1.99-4.518-4.445 0-2.454 2.023-4.444 4.518-4.444 2.495 0 4.518 1.99 4.518 4.444ZM131.44 35.57c0 2.454-2.023 4.444-4.519 4.444-2.495 0-4.518-1.99-4.518-4.444 0-2.455 2.023-4.445 4.518-4.445 2.496 0 4.519 1.99 4.519 4.445Zm24.86 0c0 2.454-2.024 4.444-4.519 4.444s-4.518-1.99-4.518-4.444c0-2.455 2.023-4.445 4.518-4.445 2.495 0 4.519 1.99 4.519 4.445Zm24.86 0c0 2.454-2.024 4.444-4.519 4.444s-4.518-1.99-4.518-4.444c0-2.455 2.023-4.445 4.518-4.445 2.495 0 4.519 1.99 4.519 4.445Zm24.859 0c0 2.454-2.023 4.444-4.518 4.444-2.495 0-4.518-1.99-4.518-4.444 0-2.455 2.023-4.445 4.518-4.445 2.495 0 4.518 1.99 4.518 4.445Zm24.86 0c0 2.454-2.023 4.444-4.518 4.444-2.495 0-4.518-1.99-4.518-4.444 0-2.455 2.023-4.445 4.518-4.445 2.495 0 4.518 1.99 4.518 4.445ZM131.44 51.13c0 2.455-2.023 4.445-4.519 4.445-2.495 0-4.518-1.99-4.518-4.445 0-2.454 2.023-4.444 4.518-4.444 2.496 0 4.519 1.99 4.519 4.444Zm24.86 0c0 2.455-2.024 4.445-4.519 4.445s-4.518-1.99-4.518-4.445c0-2.454 2.023-4.444 4.518-4.444 2.495 0 4.519 1.99 4.519 4.444Zm24.86 0c0 2.455-2.024 4.445-4.519 4.445s-4.518-1.99-4.518-4.445c0-2.454 2.023-4.444 4.518-4.444 2.495 0 4.519 1.99 4.519 4.444Zm24.859 0c0 2.455-2.023 4.445-4.518 4.445-2.495 0-4.518-1.99-4.518-4.445 0-2.454 2.023-4.444 4.518-4.444 2.495 0 4.518 1.99 4.518 4.444Zm24.86 0c0 2.455-2.023 4.445-4.518 4.445-2.495 0-4.518-1.99-4.518-4.445 0-2.454 2.023-4.444 4.518-4.444 2.495 0 4.518 1.99 4.518 4.444Zm23.279-46.685c0 2.454-2.023 4.444-4.519 4.444-2.495 0-4.518-1.99-4.518-4.444 0-2.455 2.023-4.445 4.518-4.445 2.496 0 4.519 1.99 4.519 4.445Zm24.855 0c0 2.454-2.023 4.444-4.518 4.444-2.496 0-4.519-1.99-4.519-4.444 0-2.455 2.023-4.445 4.519-4.445 2.495 0 4.518 1.99 4.518 4.445Zm24.86 0c0 2.454-2.023 4.444-4.518 4.444-2.496 0-4.519-1.99-4.519-4.444 0-2.455 2.023-4.445 4.519-4.445 2.495 0 4.518 1.99 4.518 4.445Zm24.86 0c0 2.454-2.023 4.444-4.519 4.444-2.495 0-4.518-1.99-4.518-4.444 0-2.455 2.023-4.445 4.518-4.445 2.496 0 4.519 1.99 4.519 4.445Zm24.86 0c0 2.454-2.023 4.444-4.519 4.444-2.495 0-4.518-1.99-4.518-4.444 0-2.455 2.023-4.445 4.518-4.445 2.496 0 4.519 1.99 4.519 4.445ZM254.158 20.01c0 2.454-2.023 4.444-4.519 4.444-2.495 0-4.518-1.99-4.518-4.445 0-2.454 2.023-4.444 4.518-4.444 2.496 0 4.519 1.99 4.519 4.444Zm24.855 0c0 2.454-2.023 4.444-4.518 4.444-2.496 0-4.519-1.99-4.519-4.445 0-2.454 2.023-4.444 4.519-4.444 2.495 0 4.518 1.99 4.518 4.444Zm24.86 0c0 2.454-2.023 4.444-4.518 4.444-2.496 0-4.519-1.99-4.519-4.445 0-2.454 2.023-4.444 4.519-4.444 2.495 0 4.518 1.99 4.518 4.444Zm24.86 0c0 2.454-2.023 4.444-4.519 4.444-2.495 0-4.518-1.99-4.518-4.445 0-2.454 2.023-4.444 4.518-4.444 2.496 0 4.519 1.99 4.519 4.444Zm24.86 0c0 2.454-2.023 4.444-4.519 4.444-2.495 0-4.518-1.99-4.518-4.445 0-2.454 2.023-4.444 4.518-4.444 2.496 0 4.519 1.99 4.519 4.444Zm-99.435 15.56c0 2.454-2.023 4.444-4.519 4.444-2.495 0-4.518-1.99-4.518-4.444 0-2.455 2.023-4.445 4.518-4.445 2.496 0 4.519 1.99 4.519 4.445Zm24.855 0c0 2.454-2.023 4.444-4.518 4.444-2.496 0-4.519-1.99-4.519-4.444 0-2.455 2.023-4.445 4.519-4.445 2.495 0 4.518 1.99 4.518 4.445Zm24.86 0c0 2.454-2.023 4.444-4.518 4.444-2.496 0-4.519-1.99-4.519-4.444 0-2.455 2.023-4.445 4.519-4.445 2.495 0 4.518 1.99 4.518 4.445Zm24.86 0c0 2.454-2.023 4.444-4.519 4.444-2.495 0-4.518-1.99-4.518-4.444 0-2.455 2.023-4.445 4.518-4.445 2.496 0 4.519 1.99 4.519 4.445Zm24.86 0c0 2.454-2.023 4.444-4.519 4.444-2.495 0-4.518-1.99-4.518-4.444 0-2.455 2.023-4.445 4.518-4.445 2.496 0 4.519 1.99 4.519 4.445Zm-99.435 15.56c0 2.455-2.023 4.445-4.519 4.445-2.495 0-4.518-1.99-4.518-4.445 0-2.454 2.023-4.444 4.518-4.444 2.496 0 4.519 1.99 4.519 4.444Zm24.855 0c0 2.455-2.023 4.445-4.518 4.445-2.496 0-4.519-1.99-4.519-4.445 0-2.454 2.023-4.444 4.519-4.444 2.495 0 4.518 1.99 4.518 4.444Zm24.86 0c0 2.455-2.023 4.445-4.518 4.445-2.496 0-4.519-1.99-4.519-4.445 0-2.454 2.023-4.444 4.519-4.444 2.495 0 4.518 1.99 4.518 4.444Zm24.86 0c0 2.455-2.023 4.445-4.519 4.445-2.495 0-4.518-1.99-4.518-4.445 0-2.454 2.023-4.444 4.518-4.444 2.496 0 4.519 1.99 4.519 4.444Zm24.86 0c0 2.455-2.023 4.445-4.519 4.445-2.495 0-4.518-1.99-4.518-4.445 0-2.454 2.023-4.444 4.518-4.444 2.496 0 4.519 1.99 4.519 4.444Zm22.968-46.685c0 2.454-2.024 4.444-4.519 4.444s-4.518-1.99-4.518-4.444c0-2.455 2.023-4.445 4.518-4.445 2.495 0 4.519 1.99 4.519 4.445Zm24.859 0c0 2.454-2.023 4.444-4.518 4.444-2.495 0-4.518-1.99-4.518-4.444 0-2.455 2.023-4.445 4.518-4.445 2.495 0 4.518 1.99 4.518 4.445Zm24.86 0c0 2.454-2.023 4.444-4.518 4.444-2.495 0-4.518-1.99-4.518-4.444 0-2.455 2.023-4.445 4.518-4.445 2.495 0 4.518 1.99 4.518 4.445Zm24.86 0c0 2.454-2.023 4.444-4.518 4.444-2.495 0-4.518-1.99-4.518-4.444 0-2.455 2.023-4.445 4.518-4.445 2.495 0 4.518 1.99 4.518 4.445Zm24.86 0c0 2.454-2.023 4.444-4.518 4.444-2.495 0-4.519-1.99-4.519-4.444 0-2.455 2.024-4.445 4.519-4.445S476 1.99 476 4.445ZM376.561 20.01c0 2.454-2.024 4.444-4.519 4.444s-4.518-1.99-4.518-4.445c0-2.454 2.023-4.444 4.518-4.444 2.495 0 4.519 1.99 4.519 4.444Zm24.859 0c0 2.454-2.023 4.444-4.518 4.444-2.495 0-4.518-1.99-4.518-4.445 0-2.454 2.023-4.444 4.518-4.444 2.495 0 4.518 1.99 4.518 4.444Zm24.86 0c0 2.454-2.023 4.444-4.518 4.444-2.495 0-4.518-1.99-4.518-4.445 0-2.454 2.023-4.444 4.518-4.444 2.495 0 4.518 1.99 4.518 4.444Zm24.86 0c0 2.454-2.023 4.444-4.518 4.444-2.495 0-4.518-1.99-4.518-4.445 0-2.454 2.023-4.444 4.518-4.444 2.495 0 4.518 1.99 4.518 4.444Zm24.86 0c0 2.454-2.023 4.444-4.518 4.444-2.495 0-4.519-1.99-4.519-4.445 0-2.454 2.024-4.444 4.519-4.444S476 17.555 476 20.009Zm-99.439 15.56c0 2.454-2.024 4.444-4.519 4.444s-4.518-1.99-4.518-4.444c0-2.455 2.023-4.445 4.518-4.445 2.495 0 4.519 1.99 4.519 4.445Zm24.859 0c0 2.454-2.023 4.444-4.518 4.444-2.495 0-4.518-1.99-4.518-4.444 0-2.455 2.023-4.445 4.518-4.445 2.495 0 4.518 1.99 4.518 4.445Zm24.86 0c0 2.454-2.023 4.444-4.518 4.444-2.495 0-4.518-1.99-4.518-4.444 0-2.455 2.023-4.445 4.518-4.445 2.495 0 4.518 1.99 4.518 4.445Zm24.86 0c0 2.454-2.023 4.444-4.518 4.444-2.495 0-4.518-1.99-4.518-4.444 0-2.455 2.023-4.445 4.518-4.445 2.495 0 4.518 1.99 4.518 4.445Zm24.86 0c0 2.454-2.023 4.444-4.518 4.444-2.495 0-4.519-1.99-4.519-4.444 0-2.455 2.024-4.445 4.519-4.445S476 33.115 476 35.57Zm-99.439 15.56c0 2.455-2.024 4.445-4.519 4.445s-4.518-1.99-4.518-4.445c0-2.454 2.023-4.444 4.518-4.444 2.495 0 4.519 1.99 4.519 4.444Zm24.859 0c0 2.455-2.023 4.445-4.518 4.445-2.495 0-4.518-1.99-4.518-4.445 0-2.454 2.023-4.444 4.518-4.444 2.495 0 4.518 1.99 4.518 4.444Zm24.86 0c0 2.455-2.023 4.445-4.518 4.445-2.495 0-4.518-1.99-4.518-4.445 0-2.454 2.023-4.444 4.518-4.444 2.495 0 4.518 1.99 4.518 4.444Zm24.86 0c0 2.455-2.023 4.445-4.518 4.445-2.495 0-4.518-1.99-4.518-4.445 0-2.454 2.023-4.444 4.518-4.444 2.495 0 4.518 1.99 4.518 4.444Zm24.86 0c0 2.455-2.023 4.445-4.518 4.445-2.495 0-4.519-1.99-4.519-4.445 0-2.454 2.024-4.444 4.519-4.444S476 48.676 476 51.13Z" fill="#E2B544"/></svg>