<svg width="731" height="239" fill="none" xmlns="http://www.w3.org/2000/svg"><path opacity=".5" d="M472.378 105.058h-12.183l.133-.144L442.037 85h12.184l18.29 19.914-.133.144Z" fill="#EEBD2C"/><path d="m472.378 105.058-18.425 20.059h-11.718l-.235-.254 18.189-19.805h12.189Z" fill="#EEBD2C"/><path opacity=".5" d="M487.024 104.914 468.733 85h12.184l18.29 19.914-.133.144h-12.183l.133-.144Z" fill="#EEBD2C"/><path d="m499.074 105.058-18.425 20.059h-11.718l-.235-.254 18.195-19.805h12.183Z" fill="#F4BC33"/><path opacity=".5" d="M513.715 104.914 495.424 85h12.183l18.291 19.914-.134.144h-12.183l.134-.144Z" fill="#F4BC33"/><path d="m525.764 105.058-18.424 20.059h-11.718l-.235-.254 18.189-19.805h12.188Z" fill="#F4BC33"/><path opacity=".5" d="m253.936 233.201 4.777-5.201h3.179l-4.777 5.201.032.04h-3.179l-.032-.04Z" fill="#EEBD2C"/><path d="m257.153 233.241 4.75 5.171-.059.065h-3.056l-4.809-5.236h3.179-.005Z" fill="#EEBD2C"/><path opacity=".5" d="M250.185 233.241h-3.18l-.032-.04L251.75 228h3.18l-4.777 5.201.032.04Z" fill="#EEBD2C"/><path d="m250.185 233.241 4.75 5.171-.059.065h-3.056l-4.809-5.236h3.179-.005Z" fill="#EEBD2C"/><path opacity=".5" d="M243.211 233.241h-3.179l-.032-.04 4.777-5.201h3.179l-4.777 5.201.038.04h-.006Z" fill="#EEBD2C"/><path d="m243.211 233.241 4.751 5.171-.059.065h-3.056l-4.81-5.236h3.18-.006Z" fill="#EEBD2C"/><path d="M666.725 167.273c0 .701-.609 1.273-1.362 1.273-.754 0-1.363-.567-1.363-1.273 0-.701.609-1.273 1.363-1.273.753 0 1.362.567 1.362 1.273Zm15.833 0c0 .701-.609 1.273-1.363 1.273-.753 0-1.362-.567-1.362-1.273 0-.701.609-1.273 1.362-1.273.754 0 1.363.567 1.363 1.273Zm15.838 0c0 .701-.609 1.273-1.363 1.273-.753 0-1.362-.567-1.362-1.273 0-.701.609-1.273 1.362-1.273.754 0 1.363.567 1.363 1.273Zm15.833 0c0 .701-.609 1.273-1.363 1.273-.753 0-1.362-.567-1.362-1.273 0-.701.609-1.273 1.362-1.273.754 0 1.363.567 1.363 1.273Zm15.833 0c0 .701-.61 1.273-1.363 1.273s-1.363-.567-1.363-1.273c0-.701.61-1.273 1.363-1.273s1.363.567 1.363 1.273Zm-63.337 13.555c0 .701-.609 1.273-1.362 1.273-.754 0-1.363-.567-1.363-1.273 0-.701.609-1.273 1.363-1.273.753 0 1.362.567 1.362 1.273Zm15.833 0c0 .701-.609 1.273-1.363 1.273-.753 0-1.362-.567-1.362-1.273 0-.701.609-1.273 1.362-1.273.754 0 1.363.567 1.363 1.273Zm15.838 0c0 .701-.609 1.273-1.363 1.273-.753 0-1.362-.567-1.362-1.273 0-.701.609-1.273 1.362-1.273.754 0 1.363.567 1.363 1.273Zm15.833 0c0 .701-.609 1.273-1.363 1.273-.753 0-1.362-.567-1.362-1.273 0-.701.609-1.273 1.362-1.273.754 0 1.363.567 1.363 1.273Zm15.833 0c0 .701-.61 1.273-1.363 1.273s-1.363-.567-1.363-1.273c0-.701.61-1.273 1.363-1.273s1.363.567 1.363 1.273Zm-63.337 13.549c0 .701-.609 1.273-1.362 1.273-.754 0-1.363-.567-1.363-1.273 0-.701.609-1.273 1.363-1.273.753 0 1.362.567 1.362 1.273Zm15.833 0c0 .701-.609 1.273-1.363 1.273-.753 0-1.362-.567-1.362-1.273 0-.701.609-1.273 1.362-1.273.754 0 1.363.567 1.363 1.273Zm15.838 0c0 .701-.609 1.273-1.363 1.273-.753 0-1.362-.567-1.362-1.273 0-.701.609-1.273 1.362-1.273.754 0 1.363.567 1.363 1.273Zm15.833 0c0 .701-.609 1.273-1.363 1.273-.753 0-1.362-.567-1.362-1.273 0-.701.609-1.273 1.362-1.273.754 0 1.363.567 1.363 1.273Zm15.833 0c0 .701-.61 1.273-1.363 1.273s-1.363-.567-1.363-1.273c0-.701.61-1.273 1.363-1.273s1.363.567 1.363 1.273Zm-63.337 13.555c0 .701-.609 1.273-1.362 1.273-.754 0-1.363-.567-1.363-1.273 0-.701.609-1.273 1.363-1.273.753 0 1.362.567 1.362 1.273Zm15.833 0c0 .701-.609 1.273-1.363 1.273-.753 0-1.362-.567-1.362-1.273 0-.701.609-1.273 1.362-1.273.754 0 1.363.567 1.363 1.273Zm15.838 0c0 .701-.609 1.273-1.363 1.273-.753 0-1.362-.567-1.362-1.273 0-.701.609-1.273 1.362-1.273.754 0 1.363.567 1.363 1.273Zm15.833 0c0 .701-.609 1.273-1.363 1.273-.753 0-1.362-.567-1.362-1.273 0-.701.609-1.273 1.362-1.273.754 0 1.363.567 1.363 1.273Zm15.833 0c0 .701-.61 1.273-1.363 1.273s-1.363-.567-1.363-1.273c0-.701.61-1.273 1.363-1.273s1.363.567 1.363 1.273Zm-63.337 13.555c0 .701-.609 1.272-1.362 1.272-.754 0-1.363-.566-1.363-1.272 0-.702.609-1.273 1.363-1.273.753 0 1.362.566 1.362 1.273Zm15.833 0c0 .701-.609 1.272-1.363 1.272-.753 0-1.362-.566-1.362-1.272 0-.702.609-1.273 1.362-1.273.754 0 1.363.566 1.363 1.273Zm15.838 0c0 .701-.609 1.272-1.363 1.272-.753 0-1.362-.566-1.362-1.272 0-.702.609-1.273 1.362-1.273.754 0 1.363.566 1.363 1.273Zm15.833 0c0 .701-.609 1.272-1.363 1.272-.753 0-1.362-.566-1.362-1.272 0-.702.609-1.273 1.362-1.273.754 0 1.363.566 1.363 1.273Zm15.833 0c0 .701-.61 1.272-1.363 1.272s-1.363-.566-1.363-1.272c0-.702.61-1.273 1.363-1.273s1.363.566 1.363 1.273Zm-63.337 13.554c0 .701-.609 1.273-1.362 1.273-.754 0-1.363-.567-1.363-1.273 0-.701.609-1.273 1.363-1.273.753 0 1.362.567 1.362 1.273Zm15.833 0c0 .701-.609 1.273-1.363 1.273-.753 0-1.362-.567-1.362-1.273 0-.701.609-1.273 1.362-1.273.754 0 1.363.567 1.363 1.273Zm15.838 0c0 .701-.609 1.273-1.363 1.273-.753 0-1.362-.567-1.362-1.273 0-.701.609-1.273 1.362-1.273.754 0 1.363.567 1.363 1.273Zm15.833 0c0 .701-.609 1.273-1.363 1.273-.753 0-1.362-.567-1.362-1.273 0-.701.609-1.273 1.362-1.273.754 0 1.363.567 1.363 1.273Zm15.833 0c0 .701-.61 1.273-1.363 1.273s-1.363-.567-1.363-1.273c0-.701.61-1.273 1.363-1.273s1.363.567 1.363 1.273Z" fill="#fff"/><g opacity=".5" fill="#151514"><path opacity=".5" d="m31.115.031-19.45 38.113L0 38.124 19.456 0 31.11.021l.005.01Zm24.131.053-19.45 38.113-11.665-.021L43.587.053l11.654.02.005.011Zm24.131.052L59.927 38.25l-11.665-.02L67.718.104l11.654.02.005.011Zm24.132.054-19.45 38.112-11.665-.021L91.849.158l11.654.02.006.011Zm24.131.052-19.45 38.113-11.665-.021L115.98.21l11.654.021.006.01Zm24.131.063-19.45 38.113-11.665-.032L140.112.263l11.654.02.005.011v.01Zm24.126.052-19.45 38.112-11.665-.031L164.237.315l11.654.02.006.011v.01Zm24.131.053-19.45 38.112-11.665-.021L188.369.378l11.654.02.005.011Zm24.131.052-19.45 38.112-11.665-.02L212.5.43l11.654.021.005.01Zm24.131.052-19.45 38.113-11.665-.02L236.631.482l11.654.02.005.011Zm24.132.053-19.451 38.112-11.665-.02L260.762.534l11.654.021.006.01Zm24.131.053-19.451 38.112-11.664-.02L284.893.587l11.654.02.006.011Zm24.131.062-19.45 38.113-11.665-.021L309.024.651l11.655.02.005.011Zm24.131.053-19.45 38.112-11.665-.02L333.156.703l11.654.021.005.01Zm24.131.052L349.496 38.9l-11.665-.021L357.287.755l11.654.021.005.01Zm24.131.053-19.45 38.113-11.665-.021L381.418.808l11.654.021.005.01Zm24.132.052-19.451 38.113-11.665-.021L405.549.86l11.654.032.006.01v-.01Zm24.125.052-19.45 38.113-11.665-.02L429.675.912l11.654.02.005.011Zm24.132.064L446.015 39.12l-11.665-.02L453.806.975l11.654.021.006.01Zm24.131.052-19.45 38.113-11.665-.021 19.455-38.124 11.654.021.006.01Zm24.131.052-19.45 38.113-11.665-.02L502.069 1.08l11.654.031.005.01v-.01Z"/><path opacity=".8" d="m20.465 20.893-8.8 17.251L0 38.124l8.8-17.252 11.665.02Zm24.132.052-8.801 17.252-11.665-.021 8.8-17.252 11.666.021Zm24.131.053-8.8 17.251-11.666-.02 8.801-17.252 11.665.02Zm24.132.052-8.802 17.252-11.665-.021 8.801-17.252 11.665.021Zm24.13.063-8.8 17.252-11.665-.021 8.8-17.252 11.665.021Zm24.131.053-8.8 17.251-11.665-.031 8.801-17.241 11.664.02Zm24.132.052-8.801 17.251-11.665-.031 8.801-17.252 11.665.021v.011Zm24.131.052-8.801 17.252-11.665-.021 8.801-17.252 11.665.021Zm24.131.053-8.801 17.252-11.665-.022 8.801-17.251 11.665.021Zm24.131.052-8.801 17.252-11.664-.021 8.8-17.252 11.665.021Zm24.131.053-8.8 17.252-11.665-.021 8.8-17.252 11.665.021Zm24.126.063-8.801 17.252-11.664-.021 8.8-17.252 11.665.021Zm24.131.052-8.8 17.252-11.665-.021 8.801-17.252 11.664.021Zm24.132.053-8.801 17.252-11.665-.021 8.801-17.252 11.665.021Zm24.131.052L349.496 38.9l-11.665-.021 8.801-17.252 11.665.021Zm24.131.053-8.801 17.252-11.665-.021 8.801-17.252 11.665.021Zm24.131.052-8.801 17.252-11.665-.021 8.801-17.252 11.665.021Zm24.131.063-8.8 17.252-11.665-.021 8.8-17.252 11.665.021Zm24.131.053-8.8 17.251-11.665-.02 8.801-17.252 11.664.02Zm24.132.052-8.801 17.252-11.665-.021 8.801-17.252 11.665.021Zm24.131.053-8.801 17.251-11.665-.02 8.801-17.252 11.665.02Z"/></g><path d="M14.762 235.698H5v-7.145l9.762-12.485L5 203.582v-7.145h9.762l15.352 19.631-15.352 19.625v.005Z" fill="#D5D6D4"/><path d="M54.502 216.073 39.15 235.699H23.88l-.043-.05 15.309-19.576-15.31-19.582.043-.049H39.15l15.352 19.631Z" fill="#D5D6D4"/><path d="m78.89 216.073-15.352 19.626H48.266l-.037-.05 15.309-19.576-15.31-19.582.038-.049h15.272l15.352 19.631Z" fill="#D5D6D4"/><path d="M103.272 216.073 87.92 235.699H72.648l-.037-.05 15.314-19.576-15.314-19.582.037-.049H87.92l15.352 19.631Z" fill="#D5D6D4"/><path d="m127.66 216.073-15.352 19.626H97.036l-.037-.05 15.309-19.576-15.31-19.582.038-.049h15.272l15.352 19.631Z" fill="#D5D6D4"/><path d="m152.042 216.073-15.352 19.626h-15.271l-.043-.05 15.314-19.576-15.314-19.582.043-.049h15.271l15.352 19.631Z" fill="#D5D6D4"/><path d="m176.43 216.072-15.352 19.626h-15.266l-.043-.049 15.309-19.577-15.309-19.581L38.787 60h15.266l122.371 156.072h.006Z" fill="#D5D6D4"/><path d="M547 168.35 674.795 1h38.66l-88.836 117.8-38.761 49.55 38.761 49.559-.101.13h-38.66L547 168.35Z" fill="#F4BC33"/></svg>