<svg width="900" height="600" xmlns="http://www.w3.org/2000/svg"><path fill="#DD7C0E" d="M0 0h900v600H0z"/><path d="M900 486.7c-60.1-8.2-120.2-16.5-186.3-37-66-20.5-137.9-53.4-151-112.4-13.1-59.1 32.7-144.3 17.6-204.9-15.1-60.6-91.1-96.5-167-132.4H900Z" fill="#df8110"/><path d="M900 425.9c-52.6-7.2-105.2-14.4-163-32.4s-120.7-46.7-132.1-98.4c-11.5-51.6 28.6-126.2 15.4-179.2C607.1 62.8 540.6 31.4 474.1 0H900Z" fill="#e38a14"/><path d="M900 365.1c-45.1-6.2-90.2-12.4-139.7-27.8-49.5-15.4-103.5-40.1-113.3-84.3-9.8-44.3 24.6-108.3 13.3-153.7C648.9 53.9 591.9 26.9 534.9 0H900Z" fill="#e69319"/><path d="M900 304.2c-37.6-5.1-75.2-10.3-116.4-23.1-41.3-12.9-86.2-33.4-94.4-70.3-8.2-36.9 20.4-90.2 11-128-9.4-37.9-56.9-60.4-104.4-82.8H900Z" fill="#ea9c1e"/><path d="M900 243.4c-30.1-4.2-60.1-8.3-93.1-18.6-33-10.2-69-26.6-75.5-56.2-6.6-29.5 16.3-72.1 8.8-102.4C732.6 35.9 694.6 18 656.6 0H900Z" fill="#eda524"/><path d="M900 182.5c-22.5-3.1-45.1-6.2-69.9-13.9-24.7-7.7-51.7-20-56.6-42.1-4.9-22.2 12.3-54.1 6.6-76.8C774.5 26.9 746 13.5 717.5 0H900Z" fill="#f0ae29"/><path d="M900 121.7c-15-2.1-30.1-4.1-46.6-9.3-16.5-5.1-34.5-13.3-37.7-28.1-3.3-14.7 8.2-36.1 4.4-51.2C816.3 18 797.3 9 778.3 0H900Z" fill="#f3b730"/><path d="M900 60.8c-7.5-1-15-2-23.3-4.6-8.2-2.6-17.2-6.7-18.9-14-1.6-7.4 4.1-18.1 2.2-25.6C858.2 9 848.7 4.5 839.2 0H900Z" fill="#f4bc33"/><path d="M0 113.3C37.5 196 75.1 278.8 121.3 307.1c46.2 28.4 101.1 2.3 163 8.6 61.8 6.4 130.5 45.2 165.4 98 34.9 52.8 36 119.6 37 186.3H0Z" fill="#df8110"/><path d="M0 174.1c32.9 72.4 65.7 144.8 106.1 169.6 40.5 24.8 88.5 2 142.6 7.6 54.1 5.5 114.2 39.5 144.8 85.7 30.5 46.2 31.5 104.6 32.4 163H0Z" fill="#e38a14"/><path d="M0 234.9C28.2 297 56.3 359.1 91 380.3c34.7 21.3 75.8 1.7 122.2 6.5 46.4 4.8 97.9 33.9 124.1 73.5 26.1 39.6 27 89.6 27.8 139.7H0Z" fill="#e69319"/><path d="M0 295.8C23.5 347.5 46.9 399.2 75.8 417c28.9 17.7 63.2 1.4 101.9 5.3 38.6 4 81.5 28.3 103.4 61.3 21.8 33 22.4 74.7 23.1 116.4H0Z" fill="#ea9c1e"/><path d="M0 356.6c18.8 41.4 37.5 82.8 60.7 97 23.1 14.1 50.5 1.1 81.4 4.3 30.9 3.2 65.3 22.6 82.7 49 17.5 26.4 18 59.7 18.6 93.1H0Z" fill="#eda524"/><path d="M0 417.5c14.1 31 28.2 62 45.5 72.7 17.3 10.6 37.9.8 61.1 3.2 23.2 2.4 48.9 17 62 36.7 13.1 19.8 13.5 44.9 13.9 69.9H0Z" fill="#f0ae29"/><path d="M0 478.3c9.4 20.7 18.8 41.4 30.3 48.5 11.6 7.1 25.3.5 40.8 2.1 15.4 1.6 32.6 11.3 41.3 24.5 8.7 13.2 9 29.9 9.3 46.6H0Z" fill="#f3b730"/><path d="M0 539.2c4.7 10.3 9.4 20.6 15.2 24.2 5.7 3.5 12.6.3 20.3 1.1 7.8.8 16.3 5.6 20.7 12.2 4.4 6.6 4.5 15 4.6 23.3H0Z" fill="#f4bc33"/></svg>