<svg id="visual" viewBox="0 0 900 600" width="900" height="600" xmlns="http://www.w3.org/2000/svg" xmlns:xlink="http://www.w3.org/1999/xlink" version="1.1"><rect x="0" y="0" width="900" height="600" fill="#4b3d40"></rect><path d="M428 600L426.8 590C425.7 580 423.3 560 421.5 540C419.7 520 418.3 500 419 480C419.7 460 422.3 440 425 420C427.7 400 430.3 380 433.2 360C436 340 439 320 439.7 300C440.3 280 438.7 260 440.7 240C442.7 220 448.3 200 451.8 180C455.3 160 456.7 140 457 120C457.3 100 456.7 80 451.2 60C445.7 40 435.3 20 430.2 10L425 0L900 0L900 10C900 20 900 40 900 60C900 80 900 100 900 120C900 140 900 160 900 180C900 200 900 220 900 240C900 260 900 280 900 300C900 320 900 340 900 360C900 380 900 400 900 420C900 440 900 460 900 480C900 500 900 520 900 540C900 560 900 580 900 590L900 600Z" fill="#dd7c0e"></path><path d="M503 600L505.2 590C507.3 580 511.7 560 516.2 540C520.7 520 525.3 500 522.5 480C519.7 460 509.3 440 508.5 420C507.7 400 516.3 380 521 360C525.7 340 526.3 320 522 300C517.7 280 508.3 260 507.7 240C507 220 515 200 519.2 180C523.3 160 523.7 140 522.5 120C521.3 100 518.7 80 518.8 60C519 40 522 20 523.5 10L525 0L900 0L900 10C900 20 900 40 900 60C900 80 900 100 900 120C900 140 900 160 900 180C900 200 900 220 900 240C900 260 900 280 900 300C900 320 900 340 900 360C900 380 900 400 900 420C900 440 900 460 900 480C900 500 900 520 900 540C900 560 900 580 900 590L900 600Z" fill="#e28914"></path><path d="M596 600L592.5 590C589 580 582 560 581.2 540C580.3 520 585.7 500 588.7 480C591.7 460 592.3 440 596 420C599.7 400 606.3 380 606.3 360C606.3 340 599.7 320 598.5 300C597.3 280 601.7 260 599 240C596.3 220 586.7 200 583.7 180C580.7 160 584.3 140 586.5 120C588.7 100 589.3 80 590.8 60C592.3 40 594.7 20 595.8 10L597 0L900 0L900 10C900 20 900 40 900 60C900 80 900 100 900 120C900 140 900 160 900 180C900 200 900 220 900 240C900 260 900 280 900 300C900 320 900 340 900 360C900 380 900 400 900 420C900 440 900 460 900 480C900 500 900 520 900 540C900 560 900 580 900 590L900 600Z" fill="#e8961a"></path><path d="M681 600L678.7 590C676.3 580 671.7 560 667 540C662.3 520 657.7 500 658.5 480C659.3 460 665.7 440 666.5 420C667.3 400 662.7 380 658.7 360C654.7 340 651.3 320 651 300C650.7 280 653.3 260 655 240C656.7 220 657.3 200 656 180C654.7 160 651.3 140 653.3 120C655.3 100 662.7 80 668.8 60C675 40 680 20 682.5 10L685 0L900 0L900 10C900 20 900 40 900 60C900 80 900 100 900 120C900 140 900 160 900 180C900 200 900 220 900 240C900 260 900 280 900 300C900 320 900 340 900 360C900 380 900 400 900 420C900 440 900 460 900 480C900 500 900 520 900 540C900 560 900 580 900 590L900 600Z" fill="#eca222"></path><path d="M730 600L736 590C742 580 754 560 759.2 540C764.3 520 762.7 500 758.3 480C754 460 747 440 745.5 420C744 400 748 380 751.8 360C755.7 340 759.3 320 754.8 300C750.3 280 737.7 260 733.7 240C729.7 220 734.3 200 739.5 180C744.7 160 750.3 140 753.3 120C756.3 100 756.7 80 752.8 60C749 40 741 20 737 10L733 0L900 0L900 10C900 20 900 40 900 60C900 80 900 100 900 120C900 140 900 160 900 180C900 200 900 220 900 240C900 260 900 280 900 300C900 320 900 340 900 360C900 380 900 400 900 420C900 440 900 460 900 480C900 500 900 520 900 540C900 560 900 580 900 590L900 600Z" fill="#f0af2a"></path><path d="M817 600L821 590C825 580 833 560 834.2 540C835.3 520 829.7 500 824.7 480C819.7 460 815.3 440 812.3 420C809.3 400 807.7 380 808.2 360C808.7 340 811.3 320 815.8 300C820.3 280 826.7 260 828.3 240C830 220 827 200 826.2 180C825.3 160 826.7 140 826.5 120C826.3 100 824.7 80 825.3 60C826 40 829 20 830.5 10L832 0L900 0L900 10C900 20 900 40 900 60C900 80 900 100 900 120C900 140 900 160 900 180C900 200 900 220 900 240C900 260 900 280 900 300C900 320 900 340 900 360C900 380 900 400 900 420C900 440 900 460 900 480C900 500 900 520 900 540C900 560 900 580 900 590L900 600Z" fill="#f4bc33"></path></svg>